<svg width="41" height="23" viewBox="0 0 41 23" fill="none" xmlns="http://www.w3.org/2000/svg">
<path d="M3.32424 7.73768C2.4426 7.73768 1.59706 8.08791 0.973648 8.71133C0.350231 9.33474 0 10.1803 0 11.0619C0 11.9436 0.350231 12.7891 0.973648 13.4125C1.59706 14.0359 2.4426 14.3862 3.32424 14.3862L25.4858 14.3862V19.9266C25.4857 20.3442 25.6035 20.7533 25.8258 21.1068C26.048 21.4604 26.3656 21.7439 26.742 21.9248C27.1184 22.1057 27.5382 22.1766 27.9531 22.1293C28.368 22.082 28.7611 21.9184 29.0871 21.6574L40.1679 12.7927C40.4275 12.5851 40.6371 12.3218 40.7812 12.0221C40.9252 11.7225 41 11.3944 41 11.0619C41 10.7295 40.9252 10.4013 40.7812 10.1017C40.6371 9.80208 40.4275 9.53872 40.1679 9.3311L29.0871 0.466459C28.7548 0.217575 28.3622 0.061739 27.9497 0.0149956C27.5372 -0.0317459 27.1197 0.0322952 26.7402 0.200523C26.3644 0.381563 26.0473 0.664991 25.8254 1.01822C25.6035 1.37145 25.4858 1.78014 25.4858 2.19728V7.73768L3.32424 7.73768Z" fill="#01BABA"/>
</svg>
