<svg height="790" viewBox="0 0 1010 790" width="1010" xmlns="http://www.w3.org/2000/svg" xmlns:xlink="http://www.w3.org/1999/xlink"><linearGradient id="a" x1=".042%" y1="50.012%" y2="50.012%"><stop offset="0" stop-color="#808080" stop-opacity=".25"/><stop offset=".54" stop-color="#808080" stop-opacity=".12"/><stop offset="1" stop-color="#808080" stop-opacity=".1"/></linearGradient><g fill="none" fill-rule="evenodd" transform="translate(-1)"><ellipse cx="355.13" cy="741.27" fill="#00baba" opacity=".1" rx="176.1" ry="33.36"/><path d="m587.55 111.4c-64.72-2.24-126.36-23.14-185.22-46s-117.16-48.18-180.33-60.29c-40.63-7.79-87.1-8.9-119.83 12.86-31.51 21-41.69 57.15-47.16 90.72-4.12 25.26-6.54 51.85 4.74 75.5 7.84 16.42 21.74 30.22 31.36 45.95 33.47 54.72 9.81 122.2-26.45 175.63-17 25.06-36.75 49-49.88 75.65-13.13 26.65-19.2 57.29-7.71 84.55 11.38 27 38.51 47.24 67.9 61.49 59.69 28.95 130 37.23 198.61 41.93 151.83 10.38 304.46 5.89 456.69 1.38 56.34-1.66 112.92-3.35 168.34-12.06 30.78-4.84 62.55-12.52 84.9-31.06 28.36-23.53 35.39-63.37 16.38-92.87-31.88-49.5-120-61.79-142.31-114.9-12.26-29.24.33-61.8 18.16-88.91 38.24-58.17 102.33-109.2 105.7-175.68 2.32-45.66-28.49-91.39-76.13-113-49.93-22.65-119.18-19.8-156 17.69-37.95 38.56-104.61 53.41-161.76 51.42z" fill="#00baba" opacity=".1"/><path d="m536.12 361.74-30.63-20.65 15.45-23-80.9-6.45-29.07 22.48-36.39-20.4-30.35 3.65-.36-8c-.37567-8.340022-1.213624-16.652788-2.51-24.9.13-2.5.22-5.37.21-8.49 0-13.15-1.78-30.58-9.6-42.2l1.8-16.18-14.6-17.25c2.344646-4.670404 5.018038-9.168387 8-13.46.5-.72 1-1.42 1.54-2.1 18.95-1.37 33.9-16.95 33.9-36 0-.88 0-1.76-.1-2.63 0-.35-.07-.71-.11-1.06 1.85 1 3.72 2 5.59 3 .35.5.75 1 1.19 1.59l.09.11.56.69.18.21c.2.24.41.47.62.71l.14.16c.53.59 1.09 1.19 1.69 1.78.071429.058124.138292.121644.2.19l.75.7.21.19c.64.57 1.32 1.12 2 1.64l.22.16.86.59.28.18c.33.2.67.41 1 .6l.12.07c.39.21.79.41 1.19.6l.2.08c.34.146667.673333.286667 1 .42l.31.11c.35.12.69.23 1.05.33l.22.06c.44.11.88.2 1.33.27h.05c.423729.068545.851143.111954 1.28.13h.29c.383071.020052.766929.020052 1.15 0h.25c.479672-.027624.957221-.084396 1.43-.17 2.237443-.294185 4.38576-1.064851 6.3-2.26.487366-.325908.919487-.727645 1.28-1.19 2-2.62-.2-5.49-.2-5.49-.78-1.86-5.84-3.17-5.84-3.17s-16-6.68-16-12-4-32.92-45.29-39.23c0 0-26.86-1.51-34.41 12.87l-.16 1.68c-2.22 1.39-4.06 4.18-6.25 5-.94616.203217-1.858623.53992-2.71 1v-.19c-.252817.221117-.460027.489471-.61.79-.470418.936012-.752422 1.955302-.83 3-.22529 1.276165-.668417 2.504068-1.31 3.63-.178874.319937-.379339.627315-.6.92l-.17.27c1.160979.090476 2.326757-.098106 3.4-.55-.169123 1.369095-.504946 2.712388-1 4 1.298206.041967 2.501658-.676978 3.08-1.84v-.08l.13-.18c.251467-.462924.45904-.948376.62-1.45l-.11.12c.2-.65.38-1.31.6-1.95.100794-.360498.266877-.699443.49-1 .541278-.545666 1.309578-.801766 2.07-.69l-.41 8.67h.18c-.240866.630665-.535274 1.239554-.88 1.82-1.42 2.3-4 3.87-4.95 6.39-.40961 1.215422-.566154 2.501813-.46 3.78 0 .75.09 1.51.15 2.26v-.06c.14 2 .18 3.9-.9 5.51-.74 1.1-1.93 1.93-2.34 3.18-.113416.34831-.164202.713965-.15 1.08.080232 1.09586.308991 2.175738.68 3.21.004336-.019765.004336-.040235 0-.06.249408.76081.30779 1.571299.17 2.36-.45 2-2.88 3.67-2.76 5.58-.006861.2512.030369.501657.11.74.46754.932928 1.277138 1.649386 2.26 2 1.541775.876734 3.312492 1.267129 5.08 1.12.662468-.11969 1.303037-.338833 1.9-.65-.7 1.61-1.42 3.2-2.15 4.71-.11.24-.23.48-.35.72 0 0-6.18-4.13-9.69 4.29-1.024648 1.749763-1.75757 3.654684-2.17 5.64-.175848.794161-.423535 1.570691-.74 2.32-1.558265 2.638049-3.890428 4.732806-6.68 6-7.16 3.28-36.08 39.35-36.59 48.69-.250286 3.645944-.866723 7.257461-1.84 10.78-2.276561 8.295407-2.861492 16.963951-1.72 25.49.35733 2.755473.949484 5.475369 1.77 8.13 3.07 9.33 5.12 26.74 5.12 26.74l3.32 30.22c-.123247 4.170921.057229 8.34528.54 12.49-3.39 3.87-17 20-11.8 24.39 4 3.46 11 2.89 14.93 2.18-3.31 8.19-8.52 22.43-9.21 32.21-1 14.47 1.71 33.64 6 41s18.59 26.24 18.59 26.24-.67 25.9 4.44 35.31 7.17 28.93 7.17 28.93 4.77 16.48 2.38 22.54 4.43 11.1-2.73 15.13-16.32 94.86-16.32 94.86-3.69 59.53 0 62.56c.197456.143545.408457.267467.63.37v20s-2.56 4.2 7.85 5.05c7.13.57 27.34 1.86 39.33 2.61l9.29.58s22 4.38 31.72 0 26.95-4.28 24.39-15.85c-.339455-1.574526-.794009-3.122016-1.36-4.63-2.81-7.18-7.58-8-16.37-10-.51-.11-1-.21-1.45-.29-9.26-1.61-12.3 2.7-17.49-2.91-4.51-4.85-18.87-10.28-23.76-12 .12-.36.27-.71.39-1.08-1.3847-.234921-2.672584-.863242-3.71-1.81l13.25.84 7.89.49s18.7 3.73 27 0 22.9-3.63 20.72-13.46c-.287157-1.339515-.671507-2.656332-1.15-3.94-2.39-6.1-6.45-6.77-13.92-8.46-.43-.09-.83-.18-1.23-.25-7.87-1.37-10.45 2.29-14.86-2.47-3.78-4.06-15.71-8.61-20-10.16 0-2.22-3-5.38-4.89-8.55-2.22-3.7 1.88-16.65 1.88-16.65l2.34-53.73c.891105-.396913 1.833712-.666229 2.8-.8 0 0 10.58-10.1 8.19-20.86-.486968-3.254402-.740947-6.539421-.76-9.83 3.48-3.23 8.27-8 9.63-10.94 2.22-4.79 0-28 0-28v-88.75l17.7 1.79 16.06 1.65 4.89.5 16.06 1.62 36.91 3.73 33.26-6.3 14.39-2.72 29.59-5.6v-72.4zm-243.61-239.91-2.06-.22c.68.03 1.4.16 2.06.22z" fill="url(#a)" fill-rule="nonzero"/><path d="m464.33 408.75c-10 14.31-45.95 6.73-45.95 6.73l-27.86-26.07-3.75-3.53 6.29-13.36s2 .55 5.43 1.53c18.01 5.23 74.28 22.67 65.84 34.7z" fill="#efb7b9"/><path d="m398.47 374.05c-1.23 4.28-4.6 10.69-7.95 15.36l-3.75-3.53 6.29-13.36s2.02.55 5.41 1.53z" fill="#000" opacity=".1"/><path d="m302.92 223.39s-25.68 11.39-24.42 39.36c.906615 18.019599 2.869991 35.97046 5.88 53.76 0 0-5.25 42.09 16.61 52.94s42.09 19.77 42.09 19.77 34.2 3.68 38.45 5.2 17.53-21.72 15.08-25.34-33.84-11.21-37.84-17.25-13.25-9.77-13.25-9.77-9.55-5.78-10.2-11 1.87-9.11 2.51-11.4 2.26-24.4 2.26-24.4 10.78-78.7-37.17-71.87z" fill="#dce6f2"/><path d="m319.87 315.36s-35.23 5.9-31.82 18.23c0 0 12.79-13.31 31.82-18.23zm.27 4.99s-19.37 15.81-15.58 16.62 15.58-16.62 15.58-16.62zm9.31 5.51s-5.19 10.63-2 9.91 2-9.91 2-9.91z" fill="#000" opacity=".1"/><path d="m399.77 375.18-2.14-.61c.61-2 .78-3.62.28-4.37-2.45-3.62-33.82-11.2-37.81-17.25s-13.25-9.77-13.25-9.77-9.55-5.78-10.2-11 1.87-9.11 2.51-11.4 2.26-24.41 2.26-24.41 10.75-78.69-37.2-71.86c0 0-25.68 11.4-24.43 39.37.90696 18.020033 2.873693 35.971069 5.89 53.76 0 0-5.25 42.09 16.61 52.94s42.09 19.77 42.09 19.77 34.19 3.67 38.45 5.2c1.61.58 4.52-2.41 7.37-6.52l1.62 1.51 27.86 26.06s35.95 7.59 45.95-6.72c8.45-12.04-47.81-29.48-65.86-34.7z" fill="#000" opacity=".1"/><path d="m288.14 118.41c-.978964.191371-1.916603.553563-2.77 1.07-1 .83-1 2.25-1.25 3.49-.293678 1.72493-.977767 3.359905-2 4.78 1.137916.083481 2.279363-.105046 3.33-.55-.171165 1.368714-.506927 2.711763-1 4 1.272685.032373 2.446379-.68358 3-1.83.529124-1.126853.947749-2.302352 1.25-3.51.093929-.3612.256931-.700787.48-1 .92-1.09 2.63-.6 4.05-.46 2.406537.202912 4.733918-.914843 6.08-2.92 1.51-2.29 1.6-8.15-2-8.77-3.76-.62-6.1 4.56-9.17 5.7z" fill="#965d7b"/><path d="m3.27 1.71c.09-.49.15-1 .26-1.49-.95.83-1 2.24-1.25 3.49-.12595852.7212152-.3236053 1.42805369-.59 2.11.78738498-1.25498948 1.32395423-2.65074873 1.58-4.11zm.32 8.26c.49797057-1.28668913.83388503-2.63034697 1-4-1.0012602.42144108-2.0852919.60952229-3.17.55-.31574342.70331543-.70099146 1.37331202-1.15 2 1.13391174.08774069 2.27234426-.09742604 3.32-.54-.16611497 1.36965303-.50202943 2.7133109-1 4 1.27200371.0298298 2.44442915-.6853497 3-1.83.24913582-.45452796.45022203-.93378343.6-1.43-.59630029.83337319-1.57672616 1.3047318-2.6 1.25zm8.78-6.8c-1.42-.14-3.14-.63-4.06.46-.2190092.30165142-.38162883.64044233-.48 1-.09.26-.17.53-.24.8.95-.75 2.49-.35 3.78-.22 2.4053384.19641638 4.7295967-.91983922 6.08-2.92.3031011-.4855773.5291167-1.01519597.67-1.57-1.3906519 1.72116733-3.5453429 2.63925305-5.75 2.45z" fill="#000" opacity=".1" transform="translate(282 119)"/><path d="m318.24 201 15.25 18.34-1.99 18.51-18.43-28.85z" fill="#dce6f2"/><path d="m333.48 219.34-1.87 17.41-.12 1.1-16.63-26.04-1.79-2.81.52-.81 4.64-7.19 1.03 1.24z" fill="#000" opacity=".1"/><path d="m341.4 176.17c-5.16 1.48-10.09 6.56-14.38 12.73-2.899603 4.257105-5.492809 8.715015-7.76 13.34-1.41 2.82-2.65 5.53-3.68 7.89l-.72 1.68c-1.74 4.11-2.71 6.86-2.71 6.86s-39.5-29.7-33.25-31.7c2.1-.67 4.86-5.17 7.59-10.84l.34-.72c1.73-3.64 3.43-7.7 4.94-11.52 3.09-7.85 5.38-14.67 5.38-14.67s60 22.45 44.25 26.95z" fill="#efb7b9"/><path d="m365.03 147.55s9.12 16.5 21.37 14.25 7.21-8.86 7.21-8.86z" fill="#444053"/><path d="m347.36 718.7c-8.08 3.69-26.35 0-26.35 0l-7.7-.48c-10-.64-26.74-1.72-32.66-2.2-8.64-.71-6.52-4.25-6.52-4.25v-21.39l41.92-10.62s16.57 5.67 21.11 10.62c4.31 4.72 6.83 1.09 14.52 2.45.38.07.78.15 1.2.25 7.3 1.67 11.26 2.33 13.6 8.38.470221 1.27105.847873 2.574451 1.13 3.9 2.16 9.74-12.18 9.67-20.25 13.34z" fill="#a36468"/><path d="m366.48 701.46c-1.502121.938598-3.081108 1.748163-4.72 2.42-5.5 2.51-10.73 5.57-16.29 7.94s-11.55 4.06-17.57 3.61c-3.15-.23-6.37-1-9.38-.1-1.861497.718748-3.614745 1.691279-5.21 2.89-10-.64-26.74-1.72-32.66-2.2-8.64-.71-6.52-4.25-6.52-4.25v-2.5c.31 0 .66-.09 1.06-.12 2.069468-.033075 4.130292.274359 6.1.91 4.34 1.18 8.66 2.34 13 3.5.721412-2.722261 2.529071-5.028834 5-6.38 2.477138-1.314978 5.257368-1.953121 8.06-1.85 6.73.09 13.1 3.28 19.82 3.6 1.878748.172742 3.770202-.144223 5.49-.92.92-.46 1.73-1.13 2.63-1.64 1.44035-.696761 2.962148-1.210745 4.53-1.53 4.406776-1.096956 8.733506-2.493537 12.95-4.18 1.2-.47 2.6-1.32 2.44-2.6-.21-1.7-2.88-1.9-3.58-3.46-.250385-.570273-.220809-1.22464.08-1.77.38.07.78.15 1.2.25 7.27 1.67 11.23 2.33 13.57 8.38z" fill="#000" opacity=".1"/><path d="m338.82 765.5c-9.5 4.34-31 0-31 0l-9.05-.53c-11.72-.75-31.46-2-38.43-2.59-10.17-.84-7.67-5-7.67-5v-25.21l49.33-12.5s19.5 6.67 24.84 12.5c5.07 5.55 8 1.28 17.09 2.88.45.08.92.18 1.41.29 8.59 2 13.25 2.75 16 9.87.556763 1.494829 1.001328 3.029079 1.33 4.59 2.48 11.46-14.35 11.37-23.85 15.7z" fill="#a36468"/><path d="m361.32 745.21c-1.767001 1.103611-3.623518 2.056958-5.55 2.85-6.47 2.95-12.63 6.55-19.17 9.34s-13.59 4.77-20.68 4.25c-3.7-.27-7.49-1.2-11-.12-2.199321.856526-4.269078 2.014244-6.15 3.44-11.72-.75-31.46-2-38.43-2.59-10.17-.84-7.67-5-7.67-5v-2.94c.414053-.067614.831248-.11434 1.25-.14 2.436144-.044496 4.862685.31712 7.18 1.07l15.29 4.12c.860805-3.211793 3.005405-5.927804 5.93-7.51 2.914648-1.553752 6.18948-2.306032 9.49-2.18 7.92.11 15.41 3.86 23.32 4.24 2.202885.200946 4.420452-.167501 6.44-1.07 1.09-.55 2-1.34 3.1-1.93 1.691251-.82821 3.482901-1.43327 5.33-1.8 5.157036-1.301344 10.221595-2.944987 15.16-4.92 1.41-.56 3.06-1.56 2.87-3.06-.25-2-3.39-2.24-4.22-4.08-.283388-.672699-.246614-1.437589.1-2.08.45.08.92.18 1.41.29 8.59 1.92 13.25 2.7 16 9.82z" fill="#000" opacity=".1"/><path d="m317.32 592.51-2.67 62.83s-4 12.83-1.83 16.5 5.83 7.33 4.5 9.5-17.33 25.63-22.5 16.63-10.27-48-10.27-48l4.77-48.17zm11.58-156.54 7.42 9.92v86.28s2.17 23 0 27.75-13.17 14.25-13.17 14.25l-9.25-47.5 2-50.25z" fill="#444053"/><path d="m317.32 592.51-2.67 62.83s-4 12.83-1.83 16.5 5.83 7.33 4.5 9.5-17.33 25.63-22.5 16.63-10.27-48-10.27-48l4.77-48.17zm11.58-156.54 7.42 9.92v86.28s2.17 23 0 27.75-13.17 14.25-13.17 14.25l-9.25-47.5 2-50.25z" fill="#000" opacity=".1"/><path d="m336.32 399.17v46.67l-8.33 36.33s-2.67 87.67-.34 98.33-8 20.67-8 20.67-6 .67-6 5.33-10 18-10 18l.33 26s4.34 48.67-2.33 58 2.33 10.67 2.33 10.67c-8.33 27.33-48.33 21-51.94 18s0-62 0-62 8.94-90 15.94-94 .34-9 2.67-15-2.33-22.33-2.33-22.33-2-19.34-7-28.67-4.34-35-4.34-35-14-18.67-18.16-26-6.84-26.33-5.84-40.67c.68-9.69 5.77-23.8 9-31.92 1.55-3.89 2.67-6.41 2.67-6.41l.95.25 54.62 14.3z" fill="#444053"/><path d="m341.4 176.17c-5.16 1.48-10.09 6.56-14.38 12.73h-1.12c-12.799417.009051-24.625376-6.830931-31-17.93-1.308764-2.259421-2.361917-4.657525-3.14-7.15 3.09-7.85 5.38-14.67 5.38-14.67s60.01 22.52 44.26 27.02z" fill="#000" opacity=".1"/><path d="m361.65 151.17c.024286 14.994511-9.311184 28.410856-23.379409 33.599402-14.068224 5.188545-29.879416 1.046619-39.596966-10.37289-9.71755-11.419508-11.27628-27.689716-3.903625-40.746512 1.083742-1.935915 2.34946-3.764176 3.78-5.46 2.358175-2.809427 5.129857-5.243922 8.22-7.22 10.61772-6.747274 24.000371-7.417252 35.238893-1.764171 11.238521 5.653081 18.678623 16.797097 19.591107 29.344171.02.88.05 1.75.05 2.62z" fill="#efb7b9"/><path d="m331.61 236.75-.12 1.1-16.63-26c-1.74 4.11-2.71 6.86-2.71 6.86s-39.5-29.74-33.25-31.74c2.1-.67 4.86-5.17 7.59-10.84l.34-.72c2.9 8.64 19.75 25.91 26.76 32.83.81.8 1.48 1.46 2 1.94l1.07 1 .56.56c2.55 2.63 13.31 14.23 14.39 25.01z" fill="#000" opacity=".1"/><path d="m344.04 324.97-1.82 58.57-.32 10.43s-21.56-2-41.68-4.2c-16.2-1.77-31.47-3.68-33.82-4.8-3-1.41-9.43-2.5-14.5-3.19-3.92-.53-7-.81-7-.81s-1.15.34-2.92.66c-3.86.7-10.64 1.27-14.59-2.16-5.05-4.39 8.22-20.34 11.53-24.17l.73-.83-1.25-11.55-3.25-29.95s-2-17.25-5-26.5c-.802045-2.629902-1.380765-5.322786-1.73-8.05-1.114649-8.448291-.543646-17.033733 1.68-25.26.950049-3.495477 1.552969-7.076148 1.8-10.69.5-9.25 28.75-45 35.75-48.25 3.148916-1.468433 5.682765-3.995204 7.16-7.14.48769-.988804.853694-2.03309 1.09-3.11 3-13 10.59-7.84 10.59-7.84 1.83 10.17 30.16 37.09 30.16 37.09l.56.56c2.81 2.88 15.33 16.4 14.44 27.94-.177842 4.295095.463575 8.584783 1.89 12.64 5.762523 18.144725 9.075157 36.977978 9.85 56z" fill="#dce6f2"/><path d="m303.9 255.42s-7 17-12.25 19.75 14.75 5.8 12.25-19.75zm5.25 31.75s-16 2-16 5 16-5 16-5zm16.75 19.5s-23.25 49.5-29.75 51 29.75-51 29.75-51zm-9.69-90.94-19.23 8.36-23.21-35.06c.48769-.988804.853694-2.03309 1.09-3.11 3-13 10.59-7.84 10.59-7.84 1.83 10.17 30.16 37.09 30.16 37.09z" fill="#000" opacity=".1"/><path d="m317.21 213.73-19.23 8.36-23.21-35.06c.48769-.988804.853694-2.03309 1.09-3.11 3-13 10.59-7.84 10.59-7.84 1.83 10.17 30.16 37.09 30.16 37.09z" fill="#dce6f2"/><path d="m341.9 393.97s-21.56-2-41.68-4.2l36.1 9.45v11c-1.58 1.43-2.95 2.17-3.84 1.79-4.16-1.75-38.11-7.25-38.11-7.25s-19.72-10-41-22c-.516529-.286151-1.017255-.599939-1.5-.94-2.48125-1.684663-4.619275-3.826081-6.3-6.31-3.93-5.69-5.85-13-6.68-20.17-.466612-4.10912-.640384-8.246224-.52-12.38.103077-4.687297.530768-9.361822 1.28-13.99-2.058017-17.925601-3.059747-35.956746-3-54 .25-28 26.5-38 26.5-38 48.25-4.25 33.29 73.75 33.29 73.75s-2.79 22-3.55 24.25-3.49 6-3.12 11.25 9.59 11.53 9.59 11.53 9 4.22 12.71 10.47c2.7 4.61 20.24 10.86 30.15 15.32zm16.16-265c.018415 1.647113-.322859 3.278401-1 4.78-.51265 1.225323-1.107332 2.414687-1.78 3.56-1.052472 2.106785-2.546342 3.962185-4.38 5.44-2.31 1.65-5.23 2.11-8 2.78s-5.65 1.74-7.23 4.1c-.856295 1.517119-1.428981 3.177571-1.69 4.9-.264907 1.720946-.952042 3.349456-2 4.74-1.122357 1.396421-3.047072 1.857036-4.68 1.12-.836327-.563818-1.470524-1.380216-1.81-2.33-1.14-2.57-1.43-5.42-1.89-8.19s-1.11-5.62-2.81-7.85-4.71-3.7-7.38-2.83c-1.805744.695168-3.25017 2.096261-4 3.88-.738956 1.767293-1.24649 3.622649-1.51 5.52-1.24 6.786667-2.703333 13.533333-4.39 20.24-.051458.274923-.164257.534701-.33.76-.265854.264982-.624667.415683-1 .42-2.24.3-4.39-1.27-6.65-1.1-.232877.015511-.463843.052332-.69.11-7.484973-13.008441-6.042789-29.307915 3.61-40.8l.18-.05c1.503371-.533681 2.869554-1.394376 4-2.52 1.443557-1.444561 2.780399-2.991957 4-4.63l.8-1c2.298559-2.769072 4.916769-5.256372 7.8-7.41.787031-.64478 1.689832-1.133514 2.66-1.44.830262-.161747 1.681151-.18876 2.52-.08 3.453487.414577 6.935174.545015 10.41.39 2.421243-.380606 4.861601-.627647 7.31-.74 6.33.18 11.73 4.65 15.73 9.55 2.15 2.51 4.07 5.4 4.2 8.68z" fill="#000" opacity=".1"/><path d="m290.1 134.6c-1.39 2.28-3.9 3.83-4.84 6.33-1.38 3.63.95 8.15-1.19 11.39-.71 1.09-1.88 1.9-2.28 3.15-.68 2.11 1.18 4.36.7 6.53s-3.34 4-2.58 6.12c.449123.924572 1.236935 1.640764 2.2 2 1.515252.869223 3.25928 1.256397 5 1.11 2.73-.45 4.76-3.13 7.53-3.33 2.25-.16 4.4 1.4 6.64 1.11.375417-.013062.732268-.166508 1-.43.169936-.222863.283184-.483676.33-.76 1.68-6.7 3.146667-13.446667 4.4-20.24.25538-1.897896.759721-3.75387 1.5-5.52.755632-1.779768 2.198048-3.178912 4-3.88 2.67-.86 5.67.6 7.38 2.83s2.36 5.08 2.82 7.85.75 5.62 1.88 8.19c.343355.953165.980682 1.772585 1.82 2.34 1.5.87 3.52.18 4.67-1.12 1.053524-1.391096 1.741184-3.02429 2-4.75.260888-1.719305.833619-3.376499 1.69-4.89 1.58-2.36 4.47-3.43 7.23-4.1s5.67-1.14 8-2.79c1.831207-1.476255 3.324748-3.327837 4.38-5.43 1.48-2.58 2.86-5.38 2.74-8.35-.13-3.24-2.05-6.13-4.1-8.65-4-4.9-9.41-9.37-15.74-9.54-2.449119.10241-4.890043.349508-7.31.74-3.475086.156272-6.957152.022475-10.41-.4-.839603-.10043-1.689701-.070069-2.52.09-.971298.296634-1.87266.78643-2.65 1.44-2.886047 2.150044-5.507599 4.633973-7.81 7.4-1.484539 1.968401-3.094551 3.838954-4.82 5.6-1.130908 1.127413-2.496733 1.991297-4 2.53-1 .28-2 .08-2.95.39-2.95.93-3.34 4.78-4.71 7.04z" fill="#965d7b"/><path d="m386.4 161.79c-8 1.47-14.63-5-18.3-9.72-1.127168-1.433464-2.152991-2.943795-3.07-4.52l27.46 5.18 1.11.21s5.05 6.61-7.2 8.85z" fill="#000" opacity=".1"/><path d="m3.49 33.14c.11191065-1.3078192-.08682317-2.6235742-.58-3.84 0 .1-.09.2-.12.3-.43 1.34.15 2.73.52 4.12.07946412-.1867471.13977304-.3810758.18-.58zm2.38-16.37c-.10288045 1.3827993-.07609695 2.7721931.08 4.15.10252989-1.3828089.07574703-2.77217-.08-4.15zm69.45-9.35c-1.0524721 2.10678458-2.5463421 3.9621849-4.38 5.44-2.31 1.65-5.22 2.11-8 2.78s-5.65 1.74-7.23 4.1c-.854871 1.5177597-1.4274654 3.1779447-1.69 4.9-.260465 1.7252468-.9479602 3.3580478-2 4.75-1.15 1.3-3.17 2-4.67 1.12-.8393184-.5674154-1.4766449-1.3868353-1.82-2.34-1.13-2.57-1.43-5.41-1.88-8.19s-1.12-5.62-2.82-7.85-4.71-3.7-7.38-2.83c-1.8038399.69814336-3.2472538 2.0982549-4 3.88-.7402794 1.7661303-1.24462 3.6221036-1.5 5.52-1.2466667 6.7933333-2.7133333 13.54-4.4 20.24-.0468158.2763237-.1600635.5371366-.33.76-.267732.2634915-.6245834.4169376-1 .43-2.24.29-4.39-1.27-6.64-1.11-2.77.2-4.8 2.88-7.53 3.32-1.74136501.1561744-3.48830046-.2316453-5-1.11-.69506808-.2990459-1.31879543-.7421309-1.83-1.3-.47407508.6788479-.61045703 1.5376856-.37 2.33.44047389.931012 1.23134572 1.6499864 2.2 2 1.51169954.8783547 3.25863499 1.2661744 5 1.11 2.73-.44 4.76-3.12 7.53-3.32 2.25-.16 4.4 1.4 6.64 1.11.3754166-.0130624.732268-.1665085 1-.43.1699365-.2228634.2831842-.4836763.33-.76 1.68-6.6666667 3.1466667-13.4133333 4.4-20.24.25538-1.8978964.7597206-3.7538697 1.5-5.52.7527462-1.7817451 2.1961601-3.1818566 4-3.88 2.67-.87 5.67.6 7.38 2.83s2.36 5.08 2.82 7.85.75 5.62 1.88 8.19c.3433551.9531647.9806816 1.7725846 1.82 2.34 1.5.87 3.52.18 4.67-1.12 1.0520398-1.3919522 1.739535-3.0247532 2-4.75.2625346-1.7220553.835129-3.3822403 1.69-4.9 1.58-2.36 4.47-3.42 7.23-4.1s5.67-1.13 8-2.78c1.8336579-1.4778151 3.3275279-3.3332154 4.38-5.44 1.48-2.57 2.86-5.37 2.74-8.34-.019678-.38186522-.059735-.76240709-.12-1.14-.4824737 2.28880319-1.3697292 4.47307716-2.62 6.45z" fill="#000" opacity=".1" transform="translate(279 126)"/><path d="m357.1 133.72c2.564436 4.559507 4.084355 9.631595 4.45 14.85-8.91-5-17.29-10.49-21.52-12.4-7.37-3.33-34.93-2.83-45.29-2.52 1.083742-1.935915 2.34946-3.764176 3.78-5.46 2.367287-2.811762 5.149218-5.246373 8.25-7.22 8.299177-5.267025 18.400076-6.886768 27.929995-4.478751 9.529919 2.408016 17.648976 8.631571 22.450005 17.208751zm31.8 23.83c-4.81 1.48-12.66-1.38-20.8-5.48-1.127168-1.433464-2.152991-2.943795-3.07-4.52l27.46 5.18c1.82 1.24 2.28 3.01-3.59 4.82z" fill="#000" opacity=".1"/><path d="m328.03 99.05s-26.25-1.5-33.63 12.75l-1.19 12.63-2-.22-.4 8.59s40.12-1.75 49.25 2.37 37.5 24.88 48.87 21.38-1-6.75-1-6.75-15.65-6.63-15.65-11.83-3.88-32.67-44.25-38.92z" fill="#444053"/><path d="m277.4 567.25s16.75 16.25 24 15c0 0-20.5-1.75-24-15zm-3.5 7.53s1.5 8.36 5.5 7.54-5.5-7.54-5.5-7.54zm26.25 139.72s-23.78 18.5-19.77 19 19.77-19 19.77-19z" fill="#000" opacity=".1"/><path d="m331.96 347.33 77-12.53v72.9l-73.16-3.83z" fill="#00baba"/><path d="m331.96 347.33 77-12.53v72.9l-73.16-3.83z" fill="#000" opacity=".05"/><path d="m408.96 334.8 92.34 6.91-5.11 63.44-87.23 2.55z" fill="#00baba"/><path d="m408.96 334.8 92.34 6.91-5.11 63.44-87.23 2.55z" fill="#000" opacity=".1"/><path d="m437.35 312.55-28.39 22.25 92.34 6.91 15.09-22.77z" fill="#00baba"/><path d="m304.08 323.03 69.32-8.44 35.56 20.21-77 12.53z" fill="#00baba"/><path d="m425.84 353.73v99.67l-36.07-3.7-15.69-1.6-4.78-.5-15.68-1.61-21.66-2.22v-96.44l76.99 5.24z" fill="#00baba"/><path d="m501.3 341.71v97.2l-28.91 5.55-14.06 2.7-32.49 6.24v-99.67z" fill="#00baba"/><path d="m501.3 341.71v97.2l-28.91 5.55-14.06 2.7-32.49 6.24v-99.67z" fill="#000" opacity=".05"/><path d="m304.08 368.31 27.88-20.98 93.88 6.4-13.82 23.28z" fill="#00baba"/><path d="m304.08 368.31 27.88-20.98 93.88 6.4-13.82 23.28z" fill="#fff" opacity=".1"/><path d="m501.3 341.71-75.46 12.02 24.56 22 80.83-13.56z" fill="#00baba"/><path d="m425.84 353.73 24.56 22 80.83-13.56-29.93-20.46z" fill="#fff" opacity=".1"/><path d="m472.39 444.46-14.06 2.7v-20.77l13.17-3.32z" fill="#fff" opacity=".1"/><path d="m389.77 435.96v13.74l-15.69-1.6v-12.14z" fill="#fff" opacity=".1"/><path d="m369.3 440.29v7.31l-15.68-1.61v-5.7z" fill="#fff" opacity=".1"/><path d="m416.4 428.67c-10.75 13.75-46.25 4.25-46.25 4.25l-26.38-27.52-3.58-3.73 7-13s2 .66 5.34 1.82c17.68 6.18 72.92 26.61 63.87 38.18z" fill="#000" opacity=".1"/><path d="m415.4 426.67c-10.75 13.75-46.25 4.25-46.25 4.25l-26.38-27.52-3.58-3.73 7-13s2 .66 5.34 1.82c17.68 6.18 72.92 26.61 63.87 38.18z" fill="#efb7b9"/><path d="m351.49 388.49c-1.46 4.2-5.17 10.42-8.76 14.91l-3.58-3.73 7-13s2.01.66 5.34 1.82z" fill="#000" opacity=".1"/><path d="m264.15 232.97s-26.25 10-26.5 38c-.059747 18.043254.941983 36.074399 3 54 0 0-7.5 41.75 13.75 53.75s41 22 41 22 33.95 5.5 38.12 7.25 18.66-20.75 16.41-24.5-33.16-13-36.83-19.25-12.71-10.46-12.71-10.46-9.22-6.29-9.59-11.54 2.35-9 3.12-11.25 3.56-24.25 3.56-24.25 14.92-78.05-33.33-73.75z" fill="#dce6f2"/><path d="m276.15 325.67s-35.5 4-32.75 16.5c0 0 13.49-12.61 32.75-16.5zm0 5s-20.15 14.75-16.45 15.75 16.45-15.75 16.45-15.75zm9 6s-5.75 10.34-2.5 9.8 2.5-9.8 2.5-9.8z" fill="#000" opacity=".1"/><g fill="#00baba"><path d="m654.77 112.39s-38-2.29-33.56 24.37c0 0-.89 4.71 3.38 6.85 0 0 .07-2 3.9-1.31 1.363936.229547 2.750266.296682 4.13.2 1.869808-.124706 3.647203-.858847 5.06-2.09 0 0 10.69-4.41 14.85-21.89 0 0 3.08-3.82 3-4.8l-6.42 2.75s2.19 4.63.46 8.48c0 0-.2-8.31-1.44-8.12-.25 0-3.33 1.61-3.33 1.61s3.77 8.06.92 13.93c0 0 1.08-9.94-2.1-13.35l-4.52 2.64s4.41 8.33 1.42 15.13c0 0 .77-10.43-2.37-14.49l-4.1 3.19s4.15 8.22 1.62 13.86c0 0-.33-12.14-2.51-13.06 0 0-3.58 3.16-4.12 4.46 0 0 2.83 6 1.07 9.11 0 0-1.08-8.09-2-8.13 0 0-3.57 5.36-3.94 9 .172899-3.393489 1.231332-6.682561 3.07-9.54-2.057526.389277-3.955798 1.37318-5.46 2.83 0 0 .55-3.79 6.34-4.12 0 0 3-4.07 3.74-4.32 0 0-5.76-.48-9.25 1.07 0 0 3.07-3.57 10.31-2l4-3.3s-7.58-1-10.8.11c0 0 3.7-3.16 11.89-.86l4.4-2.63s-6.46-1.4-10.31-.89c0 0 4.06-2.19 11.6.18l3.15-1.41s-4.74-.93-6.12-1.08-1.46-.53-1.46-.53c2.998688-.499089 6.077127-.152808 8.89 1 0 0 6.75-2.43 6.61-2.85z"/><path d="m770.23 245.73s-38-2.29-33.56 24.37c0 0-.89 4.71 3.38 6.85 0 0 .07-2 3.91-1.31 1.363936.229547 2.750266.296682 4.13.2 1.847843-.133973 3.602344-.863846 5-2.08 0 0 10.7-4.42 14.86-21.9 0 0 3.07-3.81 2.95-4.79l-6.42 2.74s2.19 4.63.47 8.48c0 0-.21-8.31-1.44-8.12-.25 0-3.34 1.61-3.34 1.61s3.78 8.07.93 13.93c0 0 1.08-9.94-2.11-13.35l-4.47 2.61s4.41 8.33 1.42 15.13c0 0 .77-10.43-2.37-14.49l-4.09 3.2s4.14 8.21 1.62 13.85c0 0-.33-12.14-2.51-13.06 0 0-3.58 3.16-4.13 4.46 0 0 2.84 6 1.08 9.11 0 0-1.08-8.09-2-8.13 0 0-3.57 5.36-3.94 9 .178662-3.393904 1.240341-6.682351 3.08-9.54-2.060123.390226-3.961347 1.373858-5.47 2.83 0 0 .56-3.79 6.35-4.12 0 0 2.95-4.07 3.74-4.32 0 0-5.76-.48-9.25 1.07 0 0 3.07-3.57 10.3-1.95l4-3.3s-7.59-1-10.8.11c0 0 3.7-3.16 11.89-.86l4.4-2.63s-6.47-1.39-10.32-.89c0 0 4.07-2.19 11.61.18l3.15-1.41s-4.74-.93-6.13-1.08-1.46-.53-1.46-.53c3.001974-.499388 6.083702-.153127 8.9 1 0 0 6.76-2.45 6.64-2.87zm-230.85-23.67s8.75-37.09-18.29-37.22c0 0-4.49-1.68-7.32 2.16 0 0 1.93.41.62 4.07-.453069 1.294217-.755072 2.636452-.9 4-.193704 1.858813.224086 3.730089 1.19 5.33 0 0 2.53 11.3 19 18.38 0 0 3.24 3.68 4.22 3.72l-1.6-6.79s-4.94 1.37-8.44-1c0 0 8.23 1.21 8.24 0 0-.25-1-3.56-1-3.56s-8.59 2.34-13.89-1.47c0 0 9.61 2.76 13.52.21l-1.8-4.92s-9 2.93-15.16-1.18c0 0 10.15 2.54 14.69.14l-2.45-4.58s-8.8 2.68-13.93-.77c0 0 12 1.74 13.3-.24 0 0-2.5-4.07-3.69-4.83 0 0-6.36 1.78-9.16-.49 0 0 8.15.31 8.34-.55 0 0-4.67-4.43-8.23-5.43 3.31758.755367 6.381378 2.361362 8.89 4.66-.036671-2.095797-.682994-4.135536-1.86-5.87 0 0 3.64 1.2 3 7 0 0 3.5 3.6 3.61 4.42 0 0 1.45-5.59.52-9.3 0 0 3 3.64.17 10.49l2.56 4.55s2.32-7.3 1.73-10.66c0 0 2.49 4.18-1.18 11.86l1.85 4.79s2.47-6.14 2.63-10c0 0 1.47 4.38-2.16 11.41l.86 3.34s1.72-4.51 2.1-5.85.77-1.35.77-1.35c-.01524 3.042279-.877451 6.020198-2.49 8.6 0 0 1.31 6.98 1.74 6.93zm-83.22 12.64s-30.52-22.83-41.43 1.9c0 0-3.33 3.45-.94 7.58 0 0 1.14-1.61 4 1.06 1.01302.942438 2.134174 1.761485 3.34 2.44 1.633264.909434 3.518858 1.260569 5.37 1 0 0 11.36 2.19 24.44-10.12 0 0 4.67-1.5 5.11-2.38l-6.89-1.21s-.72 5.07-4.27 7.34c0 0 4.39-7.06 3.25-7.57-.23-.11-3.67-.5-3.67-.5s-1.28 8.82-6.88 12.15c0 0 6.37-7.71 5.58-12.31l-5.23-.28s-.89 9.39-7.13 13.43c0 0 6.37-8.29 6-13.41l-5.18.42s-1.05 9.13-6.26 12.45c0 0 6.39-10.32 5.08-12.28 0 0-4.73.67-5.9 1.45 0 0-.91 6.54-4.11 8.2 0 0 3.55-7.35 2.83-7.86 0 0-5.93 2.51-8.26 5.37 2.015551-2.738372 4.711104-4.903087 7.82-6.28-1.934349-.803966-4.06117-1.026378-6.12-.64 0 0 2.54-2.86 7.56.05 0 0 4.7-1.77 5.5-1.55 0 0-4.55-3.57-8.32-4.19 0 0 4.54-1.3 9.69 4l5.19-.53s-5.77-5-9.08-5.84c0 0 4.83-.61 10.4 5.81l5.12.23s-4.63-4.72-8.12-6.42c0 0 4.59.4 9.59 6.53l3.41.55s-3.45-3.38-4.53-4.26-.93-1.25-.93-1.25c2.781987 1.231934 5.167257 3.212158 6.89 5.72 0 0 6.95 1.61 7.08 1.2zm101.61-212.11s-30.52-22.84-41.43 1.9c0 0-3.33 3.45-.94 7.58 0 0 1.14-1.61 4 1.06 1.018327.9375702 2.142599 1.753087 3.35 2.43 1.633012.9101325 3.518842 1.2613112 5.37 1 0 0 11.36 2.19 24.44-10.13 0 0 4.67-1.49 5.1-2.38l-6.89-1.19s-.71 5.07-4.27 7.34c0 0 4.4-7.06 3.26-7.57-.23-.11-3.67-.5-3.67-.5s-1.32 8.84-6.92 12.15c0 0 6.36-7.71 5.58-12.31l-5.23-.28s-.9 9.39-7.13 13.42c0 0 6.37-8.29 6-13.41l-5.17.42s-1.06 9.14-6.27 12.46c0 0 6.4-10.32 5.09-12.28 0 0-4.73.67-5.9 1.45 0 0-.91 6.54-4.11 8.2 0 0 3.55-7.35 2.83-7.87 0 0-5.93 2.52-8.26 5.38 2.012505-2.7412909 4.708911-4.9066915 7.82-6.28-1.936336-.8099447-4.068122-1.0325129-6.13-.64 0 0 2.55-2.86 7.57.05 0 0 4.7-1.78 5.5-1.55 0 0-4.55-3.57-8.32-4.2 0 0 4.53-1.29 9.68 4l5.19-.53s-5.76-5-9.08-5.85c0 0 4.83-.6 10.41 5.82l5.12.22s-4.63-4.72-8.13-6.41c0 0 4.6.4 9.6 6.53l3.4.55s-3.46-3.34-4.54-4.2-.93-1.24-.93-1.24c2.782826 1.2305807 5.168433 3.211085 6.89 5.72 0 0 6.95 1.52 7.12 1.14zm116.62 28.93s-12.2-36.11-35.21-21.92c0 0-4.7 1-5.07 5.71 0 0 1.85-.68 2.67 3.12.30465 1.3517197.764361 2.6637418 1.37 3.91.826487 1.6772151 2.173617 3.0418855 3.84 3.89 0 0 8.12 8.25 25.88 5.52 0 0 4.69 1.42 5.55.93l-5-4.91s-3.46 3.77-7.68 3.62c0 0 7.63-3.32 7-4.39-.13-.21-2.74-2.48-2.74-2.48s-6.06 6.53-12.56 6.1c0 0 9.61-2.74 11.57-7l-4.14-3.19s-6.06 7.22-13.49 7c0 0 10-3.21 12.53-7.65l-4.5-2.59s-6 6.93-12.22 6.71c0 0 11.12-4.87 11.15-7.23 0 0-4.27-2.13-5.68-2.15 0 0-4.46 4.87-8 4.43 0 0 7.08-4.05 6.78-4.88 0 0-6.3-1.29-9.85-.25 3.210859-1.1179405 6.658308-1.3764992 10-.75-1.141119-1.7610169-2.770971-3.1510825-4.69-4 0 0 3.72-.91 6.21 4.33 0 0 4.88 1.21 5.4 1.84 0 0-1.72-5.51-4.47-8.17 0 0 4.47 1.51 5.69 8.82l4.58 2.5s-1.89-7.41-4.17-10c0 0 4.33 2.24 5.27 10.69l4.1 3.09s-1.14-6.52-3.06-9.9c0 0 3.56 2.94 4.2 10.83l2.49 2.38s-.92-4.74-1.3-6.08-.07-1.43-.07-1.43c1.589706 2.5941393 2.430727 5.5775137 2.43 8.62 0 0 4.84 5.19 5.19 4.93zm-79.62 1.78s-37.9-4.22-34.77 22.67c0 0-1.13 4.66 3 7 0 0 .17-2 4-1.1 1.353534.2912366 2.735615.4287737 4.12.41 1.869987-.0337714 3.677994-.6762281 5.15-1.83 0 0 10.91-3.87 16-21.12 0 0 3.26-3.65 3.19-4.64l-6.55 2.42s2 4.73 0 8.49c0 0 .21-8.31-1-8.18-.25 0-3.41 1.44-3.41 1.44s3.36 8.25.22 14c0 0 1.58-9.88-1.43-13.44l-4.65 2.4s4 8.55.65 15.19c0 0 1.3-10.38-1.63-14.59l-4.25 3s3.72 8.41.91 13.92c0 0 .29-12.14-1.84-13.17 0 0-3.74 3-4.35 4.24 0 0 2.53 6.1.62 9.15 0 0-.67-8.13-1.55-8.21 0 0-3.84 5.17-4.4 8.82.346877-3.3839732 1.574295-6.618013 3.56-9.38-2.075093.2867593-4.021354 1.1730034-5.6 2.55 0 0 .74-3.75 6.54-3.79 0 0 3.15-3.91 4-4.12 0 0-5.73-.77-9.3.6 0 0 3.25-3.42 10.39-1.43l4.21-3.09s-7.61-1.54-10.83-.54c0 0 3.86-3 11.92-.25l4.53-2.41s-6.39-1.72-10.26-1.41c0 0 4.17-2 11.58.77l3.22-1.25s-4.69-1.17-6.07-1.39-1.43-.6-1.43-.6c3.023137-.346864 6.083239.1516141 8.84 1.44 0 0 6.74-2.15 6.67-2.57zm331.6 294.17s-37.88-4.22-34.75 22.64c0 0-1.13 4.66 3 7 0 0 .17-2 4-1.11 1.351969.301104 2.735206.438756 4.12.41 1.870916-.028639 3.680512-.67166 5.15-1.83 0 0 10.91-3.87 15.95-21.11 0 0 3.26-3.66 3.19-4.64l-6.55 2.41s2 4.74 0 8.5c0 0 .21-8.32-1-8.18-.25 0-3.41 1.43-3.41 1.43s3.36 8.25.22 14c0 0 1.58-9.87-1.43-13.44l-4.65 2.41s4 8.55.66 15.19c0 0 1.29-10.38-1.64-14.6l-4.25 3s3.72 8.41.91 13.91c0 0 .29-12.14-1.84-13.16 0 0-3.73 3-4.35 4.24 0 0 2.54 6.1.62 9.15 0 0-.67-8.13-1.55-8.21 0 0-3.84 5.17-4.4 8.82.346877-3.383973 1.574295-6.618013 3.56-9.38-2.076575.281638-4.024245 1.168523-5.6 2.55 0 0 .74-3.76 6.54-3.8 0 0 3.16-3.91 4-4.11 0 0-5.73-.78-9.3.59 0 0 3.25-3.41 10.4-1.42l4.2-3.09s-7.52-1.42-10.79-.44c0 0 3.86-3 11.92-.26l4.53-2.4s-6.39-1.72-10.26-1.41c0 0 4.17-2 11.58.77l3.22-1.26s-4.69-1.17-6.07-1.38-1.43-.6-1.43-.6c3.022279-.353158 6.083204.141991 8.84 1.43 0 0 6.76-2.19 6.66-2.62zm57.91 35.38s-37.88-4.21-34.75 22.64c0 0-1.12 4.66 3 7 0 0 .17-2 4-1.1 1.34963.29369 2.729068.427942 4.11.4 1.86143-.038093 3.660759-.676452 5.13-1.82 0 0 10.9-3.87 15.94-21.12 0 0 3.27-3.65 3.19-4.64l-6.55 2.41s2 4.74 0 8.5c0 0 .21-8.31-1-8.18-.25 0-3.41 1.43-3.41 1.43s3.36 8.25.22 14c0 0 1.58-9.87-1.43-13.43l-4.65 2.4s4 8.55.66 15.19c0 0 1.29-10.38-1.64-14.59l-4.25 3s3.72 8.41.92 13.92c0 0 .28-12.15-1.85-13.17 0 0-3.73 3-4.35 4.24 0 0 2.54 6.1.62 9.15 0 0-.67-8.13-1.55-8.21 0 0-3.84 5.17-4.39 8.82.346194-3.382488 1.569919-6.615881 3.55-9.38-2.075093.286759-4.021354 1.173003-5.6 2.55 0 0 .75-3.76 6.55-3.79 0 0 3.15-3.91 4-4.12 0 0-5.73-.77-9.3.6 0 0 3.25-3.42 10.4-1.43l4.2-3.09s-7.52-1.42-10.79-.44c0 0 3.86-3 11.92-.25l4.53-2.41s-6.39-1.72-10.26-1.41c0 0 4.17-2 11.58.77l3.22-1.25s-4.69-1.17-6.06-1.39-1.44-.6-1.44-.6c3.023137-.346864 6.083239.151614 8.84 1.44 0 0 6.79-2.21 6.69-2.64zm-128.57-298.01s-30.52-22.83-41.43 1.9c0 0-3.33 3.45-.94 7.58 0 0 1.14-1.61 4 1.06 1.01302.942438 2.134174 1.7614846 3.34 2.44 1.633515.9087378 3.518875 1.2598289 5.37 1 0 0 11.36 2.19 24.45-10.12 0 0 4.66-1.5 5.1-2.38l-6.87-1.24s-.72 5.07-4.27 7.34c0 0 4.39-7.06 3.25-7.57-.23-.11-3.66-.5-3.66-.5s-1.29 8.82-6.89 12.15c0 0 6.37-7.71 5.58-12.31l-5.23-.28s-.89 9.39-7.13 13.43c0 0 6.38-8.29 6-13.41l-5.18.42s-1 9.13-6.26 12.45c0 0 6.4-10.32 5.08-12.28 0 0-4.73.67-5.9 1.45 0 0-.9 6.54-4.1 8.2 0 0 3.54-7.35 2.82-7.86 0 0-5.93 2.51-8.26 5.37 2.015551-2.738372 4.711104-4.903087 7.82-6.28-1.934349-.8039655-4.06117-1.0263782-6.12-.64 0 0 2.55-2.86 7.57.05 0 0 4.69-1.77 5.49-1.55 0 0-4.55-3.57-8.32-4.19 0 0 4.54-1.3 9.69 4l5.19-.53s-5.76-5-9.08-5.84c0 0 4.83-.61 10.4 5.81l5.13.23s-4.64-4.72-8.13-6.42c0 0 4.6.4 9.59 6.53l3.41.55s-3.45-3.38-4.53-4.26-.92-1.17-.92-1.17c2.778046 1.2339427 5.159584 3.2139429 6.88 5.72 0 0 6.93 1.56 7.06 1.15zm23.58 164.82s-10.52-36.63-34.18-23.48c0 0-4.74.73-5.33 5.47 0 0 1.88-.59 2.53 3.24.241028 1.37595.643822 2.718595 1.2 4 .741736 1.72318 2.027201 3.156157 3.66 4.08 0 0 7.74 8.6 25.6 6.68 0 0 4.62 1.62 5.5 1.18l-4.73-5.14s-3.63 3.62-7.83 3.28c0 0 7.76-3 7.16-4.07-.12-.22-2.62-2.61-2.62-2.61s-6.34 6.26-12.82 5.53c0 0 9.73-2.3 11.87-6.44l-4-3.38s-6.38 6.94-13.79 6.4c0 0 10.08-2.77 12.86-7.08l-4.38-2.79s-6.35 6.65-12.51 6.15c0 0 11.33-4.37 11.47-6.72 0 0-4.18-2.32-5.59-2.4 0 0-4.67 4.66-8.22 4.06 0 0 7.26-3.73 7-4.57 0 0-6.24-1.57-9.83-.7 3.251472-.964171 6.698118-1.064124 10-.29-1.057621-1.809441-2.622004-3.269532-4.5-4.2 0 0 3.76-.75 6 4.6 0 0 4.81 1.42 5.31 2.08 0 0-1.47-5.59-4.1-8.36 0 0 4.4 1.7 5.29 9.06l4.46 2.71s-1.56-7.5-3.72-10.14c0 0 4.22 2.43 4.79 10.91l4 3.27s-.85-6.56-2.61-10c0 0 3.43 3.1 3.71 11l2.38 2.5s-.7-4.78-1-6.14 0-1.55 0-1.55c1.479785 2.659921 2.189632 5.679368 2.05 8.72 0 0 4.56 5.38 4.92 5.14zm-234.42 82.54s-20.43-32.18-39.4-12.92c0 0-4.34 2-3.58 6.75 0 0 1.65-1.1 3.35 2.4.610854 1.240361 1.369715 2.402157 2.26 3.46 1.192342 1.443828 2.826176 2.455751 4.65 2.88 0 0 9.85 6.08 26.45-.8 0 0 4.89.26 5.61-.41l-6-3.6s-2.47 4.5-6.6 5.35c0 0 6.62-5 5.73-5.92-.17-.18-3.25-1.76-3.25-1.76s-4.33 7.78-10.75 8.91c0 0 8.69-4.95 9.59-9.53l-4.79-2.11s-4.17 8.45-11.43 10c0 0 8.9-5.49 10.35-10.41l-5-1.44s-4.22 8.17-10.27 9.42c0 0 9.64-7.38 9.11-9.68 0 0-4.66-1.05-6-.73 0 0-3.17 5.79-6.75 6.21 0 0 5.92-5.62 5.43-6.36 0 0-6.43.25-9.63 2.1 2.854458-1.849257 6.143738-2.918101 9.54-3.1-1.520568-1.439164-3.428949-2.402045-5.49-2.77 0 0 3.39-1.77 7 2.73 0 0 5 0 5.69.5 0 0-3-5-6.29-6.87 0 0 4.7.4 7.62 7.21l5.05 1.34s-3.61-6.75-6.42-8.68c0 0 4.73 1.14 7.66 9.13l4.72 2s-2.66-6.05-5.33-8.88c0 0 4.16 2 6.65 9.51l3 1.73s-2-4.39-2.71-5.6-.43-1.49-.43-1.49c2.163943 2.137476 3.690827 4.834625 4.41 7.79 0 0 5.98 3.98 6.25 3.64z" opacity=".1"/><path d="m779.14 167.78s-19.43-32.79-39-14.13c0 0-4.4 1.9-3.78 6.64 0 0 1.67-1.06 3.27 2.49.572149 1.26193 1.294 2.450465 2.15 3.54 1.148341 1.474675 2.751216 2.529198 4.56 3 0 0 9.65 6.38 26.46 0 0 0 4.88.41 5.62-.24l-5.87-3.78s-2.6 4.41-6.76 5.14c0 0 6.77-4.83 5.92-5.74-.18-.19-3.2-1.87-3.2-1.87s-4.57 7.65-11 8.58c0 0 8.84-4.68 9.87-9.22l-4.72-2.22s-4.43 8.33-11.74 9.66c0 0 9.07-5.21 10.67-10.08l-4.94-1.6s-4.48 8-10.56 9.1c0 0 9.86-7.08 9.4-9.39 0 0-4.62-1.2-6-.92 0 0-3.35 5.69-6.94 6 0 0 6.09-5.42 5.63-6.18 0 0-6.44.05-9.69 1.8 2.911369-1.75608 6.230929-2.721268 9.63-2.8-1.4781-1.486529-3.358581-2.508455-5.41-2.94 0 0 3.45-1.67 7 2.94 0 0 5 .17 5.67.68 0 0-2.83-5-6.07-7.06 0 0 4.68.54 7.39 7.44l5 1.5s-3.39-6.86-6.15-8.88c0 0 4.7 1.29 7.38 9.36l4.65 2.17s-2.47-6.13-5-9c0 0 4.09 2.13 6.36 9.71l2.93 1.82s-1.88-4.45-2.54-5.68-.38-1.5-.38-1.5c2.096179 2.203208 3.539752 4.944957 4.17 7.92 0 0 5.73 4.07 6.02 3.74zm-122.93 68.95s1-38.1-25.47-32.73c0 0-4.74-.73-6.74 3.61 0 0 2 0 1.44 3.85-.183193 1.372805-.203333 2.762463-.06 4.14.180775 1.868475.971448 3.625525 2.25 5 0 0 4.77 10.54 22.38 14.12 0 0 3.91 2.95 4.89 2.79l-3-6.32s-4.55 2.34-8.46.75c0 0 8.3-.49 8.07-1.71 0-.25-1.72-3.29-1.72-3.29s-7.94 4.05-13.89 1.39c0 0 10 .75 13.27-2.54l-2.79-4.43s-8.18 4.68-15.08 1.92c0 0 10.45.42 14.41-2.85l-3.33-4s-8.07 4.42-13.79 2.08c0 0 12.12-.73 13-2.94 0 0-3.28-3.47-4.6-4 0 0-5.86 3-9.06 1.38 0 0 8-1.34 8.05-2.23 0 0-5.47-3.39-9.16-3.64 3.402597.060833 6.729821 1.012454 9.65 2.76-.455601-2.043998-1.498294-3.910418-3-5.37 0 0 3.81.43 4.33 6.2 0 0 4.17 2.82 4.44 3.6 0 0 .29-5.77-1.38-9.21 0 0 3.68 2.95 2.3 10.23l3.43 3.94s.78-7.62-.47-10.79c0 0 3.28 3.59 1.26 11.85l2.77 4.31s1.18-6.51.55-10.34c0 0 2.32 4 .2 11.61l1.52 3.1s.77-4.77.87-6.16.48-1.48.48-1.48c.601971 2.983094.363083 6.074789-.69 8.93 0 0 2.69 6.6 3.13 6.47z"/><ellipse cx="699.97" cy="716.3" opacity=".1" rx="26.93" ry="4.55"/><ellipse cx="601.8" cy="785.38" opacity=".1" rx="26.93" ry="4.55"/><ellipse cx="94.14" cy="749.99" opacity=".1" rx="26.93" ry="4.55"/><ellipse cx="806.06" cy="780.83" opacity=".1" rx="26.93" ry="4.55"/><ellipse cx="834.1" cy="723.1" rx="40.21" ry="6.8"/><path d="m850.77 711.97c1.83562-1.49156 3.171895-3.508184 3.83-5.78.5-2.3-.48-5.05-2.67-5.89-2.46-.94-5.09.76-7.09 2.48s-4.27 3.69-6.88 3.33c2.725285-2.475759 3.954683-6.198105 3.24-9.81-.113306-.73588-.424382-1.42716-.9-2-1.37-1.46-3.84-.83-5.48.32-5.2 3.66-6.65 10.72-6.68 17.08-.52-2.29-.08-4.68-.09-7s-.66-5-2.65-6.22c-1.221485-.681084-2.601709-1.02614-4-1-2.34-.08-4.95.15-6.54 1.86-2 2.12-1.47 5.69.25 8s4.35 3.8 6.77 5.42c1.936838 1.156624 3.590521 2.731724 4.84 4.61.142387.261625.259581.536194.35.82h14.66c3.281937-1.65298 6.323262-3.745573 9.04-6.22z"/></g><path d="m76.06 728.84s15.35-.47 20-3.77 23.63-7.23 24.78-1.94 23.08 26.29 5.74 26.43-40.29-2.7-44.91-5.52-5.61-15.2-5.61-15.2z" fill="#a8a8a8"/><path d="m126.87 747.72c-17.34.14-40.29-2.7-44.91-5.52-3.52-2.14-4.92-9.83-5.39-13.38h-.51s1 12.39 5.59 15.2 27.57 5.66 44.91 5.52c5 0 6.73-1.82 6.64-4.46-.7 1.61-2.61 2.61-6.33 2.64z" fill="#000" opacity=".2"/></g></svg>