<svg xmlns="http://www.w3.org/2000/svg" style="display:none">
  <symbol id="icon-fb" viewBox="0 0 22 22">
    <path fill="#3B5998" fill-rule="nonzero" d="M11,22 C9.47482618,22 8.0436914,21.7131371 6.70655271,21.1394026 C5.36941402,20.5656681 4.20465833,19.7833146 3.21225071,18.7923186 C2.21984309,17.8013227 1.43637514,16.6382238 0.861823362,15.3029872 C0.287271581,13.9677506 0,12.5386515 0,11.0156472 C0,9.49264293 0.287271581,8.0635439 0.861823362,6.72830725 C1.43637514,5.39307061 2.21984309,4.22475607 3.21225071,3.22332859 C4.20465833,2.22190111 5.36941402,1.43433193 6.70655271,0.86059744 C8.0436914,0.286862945 9.47482618,7.41201526e-15 11,0 C12.5251738,7.41201526e-15 13.9563086,0.286862945 15.2934473,0.86059744 C16.630586,1.43433193 17.7953417,2.22190111 18.7877493,3.22332859 C19.7801569,4.22475607 20.5636249,5.39307061 21.1381766,6.72830725 C21.7127284,8.0635439 22,9.49264293 22,11.0156472 C22,12.5386515 21.7127284,13.9677506 21.1381766,15.3029872 C20.5636249,16.6382238 19.7801569,17.8013227 18.7877493,18.7923186 C17.7953417,19.7833146 16.630586,20.5656681 15.2934473,21.1394026 C13.9563086,21.7131371 12.5251738,22 11,22 Z M7.83619048,11.3457143 L9.47047619,11.3457143 L9.47047619,16.3114286 L11.5133333,16.3114286 L11.5133333,11.3457143 L13.5561905,11.3457143 L13.5561905,9.30285714 L11.5133333,9.30285714 L11.5133333,8.26571429 C11.5133333,8.0980944 11.5552377,7.9514292 11.6390476,7.82571429 C11.7228576,7.69999937 11.8171423,7.63714286 11.9219048,7.63714286 L13.5561905,7.63714286 L13.5561905,5.62571429 L11.9219048,5.62571429 C11.2514252,5.62571429 10.6752405,5.88761643 10.1933333,6.41142857 C9.71142616,6.93524071 9.47047619,7.56380586 9.47047619,8.29714286 L9.47047619,9.30285714 L7.83619048,9.30285714 L7.83619048,11.3457143 Z"/>
  </symbol>
  <symbol id="icon-tw" viewBox="23 0 22 22">
    <path fill="#55ACEE" fill-rule="nonzero" d="M11.0156472,-3.01980663e-14 C12.5386515,-3.01980663e-14 13.9677506,0.287271581 15.3029872,0.861823362 C16.6382238,1.43637514 17.8013227,2.21984309 18.7923186,3.21225071 C19.7833146,4.20465833 20.5656681,5.36941402 21.1394026,6.70655271 C21.7131371,8.0436914 22,9.47482618 22,11 C22,12.5251738 21.7131371,13.9563086 21.1394026,15.2934473 C20.5656681,16.630586 19.7833146,17.7953417 18.7923186,18.7877493 C17.8013227,19.7801569 16.6382238,20.5636249 15.3029872,21.1381766 C13.9677506,21.7127284 12.5386515,22 11.0156472,22 C9.4926429,22 8.0635439,21.7127284 6.7283073,21.1381766 C5.3930706,20.5636249 4.2247561,19.7801569 3.2233286,18.7877493 C2.2219011,17.7953417 1.4343319,16.630586 0.8605974,15.2934473 C0.2868629,13.9563086 0,12.5251738 0,11 C0,9.47482618 0.2868629,8.0436914 0.8605974,6.70655271 C1.4343319,5.36941402 2.2219011,4.20465833 3.2233286,3.21225071 C4.2247561,2.21984309 5.3930706,1.43637514 6.7283073,0.861823362 C8.0635439,0.287271581 9.4926429,-3.01980663e-14 11.0156472,-3.01980663e-14 Z M16.5419048,7.79428571 C16.3323799,7.87809566 16.1228582,7.94619021 15.9133333,7.99857143 C15.7038085,8.05095264 15.4838107,8.09809503 15.2533333,8.14 C15.4838107,7.9933326 15.6828563,7.81523914 15.8504762,7.60571429 C16.0180961,7.39618943 16.1542852,7.16571554 16.2590476,6.91428571 C16.0285703,7.01904814 15.7928583,7.123809 15.5519048,7.22857143 C15.3109512,7.33333386 15.0542871,7.40666646 14.7819048,7.44857143 C14.5933324,7.21809409 14.3628585,7.04000063 14.0904762,6.91428571 C13.8180939,6.7885708 13.5142874,6.72571429 13.1790476,6.72571429 C12.5714255,6.72571429 12.0476212,6.94571209 11.607619,7.38571429 C11.1676168,7.82571649 10.947619,8.35999686 10.947619,8.98857143 C10.947619,9.11428634 10.9685712,9.28190371 11.0104762,9.49142857 C10.0676143,9.4495236 9.2033373,9.21904971 8.417619,8.8 C7.6319008,8.38095029 6.9561933,7.82571774 6.3904762,7.13428571 C6.2019038,7.49047797 6.107619,7.86761706 6.107619,8.26571429 C6.107619,9.10381371 6.4323777,9.72190277 7.0819048,10.12 C6.70476,10.12 6.3695253,10.0361913 6.0761905,9.86857143 L6.0761905,9.9 C6.0761905,10.4447646 6.2438078,10.9214265 6.5790476,11.33 C6.9142874,11.7385735 7.3333308,11.9952376 7.8361905,12.1 C7.7523805,12.1209525 7.6633338,12.1366666 7.5690476,12.1471429 C7.4747614,12.1576191 7.3647625,12.1628571 7.2390476,12.1628571 C7.1552377,12.1628571 7.0295246,12.141905 6.8619048,12.1 C6.9876197,12.5400022 7.2390457,12.9066652 7.6161905,13.2 C7.9933352,13.4933348 8.4333308,13.6504761 8.9361905,13.6714286 C8.139996,14.3000031 7.2181005,14.6142857 6.1704762,14.6142857 L5.6361905,14.6142857 C6.1180976,14.928573 6.652378,15.174761 7.2390476,15.3528571 C7.8257172,15.5309533 8.4333302,15.62 9.0619048,15.62 C10.0885766,15.62 10.999996,15.4261924 11.7961905,15.0385714 C12.5923849,14.6509504 13.2576164,14.1533364 13.7919048,13.5457143 C14.3261931,12.9380922 14.7295224,12.2571466 15.0019048,11.5028571 C15.2742871,10.7485677 15.4104762,9.99428949 15.4104762,9.24 L15.4104762,8.95714286 C15.6409535,8.78952297 15.8504752,8.60619147 16.0390476,8.40714286 C16.22762,8.20809424 16.3952374,8.00381057 16.5419048,7.79428571 Z" transform="translate(23)"/>
  </symbol>
  <symbol id="icon-tw-nude" viewBox="46 6 12 10">
    <path fill="#55ACEE" d="M11.5419048,1.79428571 C11.3323799,1.87809566 11.1228582,1.94619021 10.9133333,1.99857143 C10.7038085,2.05095264 10.4838107,2.09809503 10.2533333,2.14 C10.4838107,1.9933326 10.6828563,1.81523914 10.8504762,1.60571429 C11.0180961,1.39618943 11.1542852,1.16571554 11.2590476,0.91428571 C11.0285703,1.01904814 10.7928583,1.123809 10.5519048,1.22857143 C10.3109512,1.33333386 10.0542871,1.40666646 9.7819048,1.44857143 C9.5933324,1.21809409 9.3628585,1.04000063 9.0904762,0.91428571 C8.8180939,0.7885708 8.5142874,0.72571429 8.1790476,0.72571429 C7.5714255,0.72571429 7.0476212,0.94571209 6.607619,1.38571429 C6.1676168,1.82571649 5.947619,2.35999686 5.947619,2.98857143 C5.947619,3.11428634 5.9685712,3.28190371 6.0104762,3.49142857 C5.0676143,3.4495236 4.2033373,3.21904971 3.417619,2.8 C2.6319008,2.38095029 1.9561933,1.82571774 1.3904762,1.13428571 C1.2019038,1.49047797 1.107619,1.86761706 1.107619,2.26571429 C1.107619,3.10381371 1.4323777,3.72190277 2.0819048,4.12 C1.70476,4.12 1.3695253,4.0361913 1.0761905,3.86857143 L1.0761905,3.9 C1.0761905,4.4447646 1.2438078,4.9214265 1.5790476,5.33 C1.9142874,5.7385735 2.3333308,5.9952376 2.8361905,6.1 C2.7523805,6.1209525 2.6633338,6.1366666 2.5690476,6.1471429 C2.4747614,6.1576191 2.3647625,6.1628571 2.2390476,6.1628571 C2.1552377,6.1628571 2.0295246,6.141905 1.8619048,6.1 C1.9876197,6.5400022 2.2390457,6.9066652 2.6161905,7.2 C2.9933352,7.4933348 3.4333308,7.6504761 3.9361905,7.6714286 C3.139996,8.3000031 2.2181005,8.6142857 1.1704762,8.6142857 L0.6361905,8.6142857 C1.1180976,8.928573 1.652378,9.174761 2.2390476,9.3528571 C2.8257172,9.5309533 3.4333302,9.62 4.0619048,9.62 C5.0885766,9.62 5.999996,9.4261924 6.7961905,9.0385714 C7.5923849,8.6509504 8.2576164,8.1533364 8.7919048,7.5457143 C9.3261931,6.9380922 9.7295224,6.2571466 10.0019048,5.5028571 C10.2742871,4.7485677 10.4104762,3.99428949 10.4104762,3.24 L10.4104762,2.95714286 C10.6409535,2.78952297 10.8504752,2.60619147 11.0390476,2.40714286 C11.22762,2.20809424 11.3952374,2.00381057 11.5419048,1.79428571 Z" transform="translate(46 6)"/>
  </symbol>
</svg>
