<svg xmlns="http://www.w3.org/2000/svg" width="1010" height="790" viewBox="0 0 1010 790">
  <defs>
    <linearGradient id="empty-a" x1=".042%" y1="50.012%" y2="50.012%">
      <stop offset="0%" stop-color="gray" stop-opacity=".25"/>
      <stop offset="54%" stop-color="gray" stop-opacity=".12"/>
      <stop offset="100%" stop-color="gray" stop-opacity=".1"/>
    </linearGradient>
  </defs>
  <g fill="none" fill-rule="evenodd" transform="translate(-1)">
    <ellipse cx="355.13" cy="741.27" fill="#00BABA" opacity=".1" rx="176.1" ry="33.36"/>
    <path fill="#00BABA" d="M587.55,111.4 C522.83,109.16 461.19,88.26 402.33,65.4 C343.47,42.54 285.17,17.22 222,5.11 C181.37,-2.68 134.9,-3.79 102.17,17.97 C70.66,38.97 60.48,75.12 55.01,108.69 C50.89,133.95 48.47,160.54 59.75,184.19 C67.59,200.61 81.49,214.41 91.11,230.14 C124.58,284.86 100.92,352.34 64.66,405.77 C47.66,430.83 27.91,454.77 14.78,481.42 C1.65,508.07 -4.42,538.71 7.07,565.97 C18.45,592.97 45.58,613.21 74.97,627.46 C134.66,656.41 204.97,664.69 273.58,669.39 C425.41,679.77 578.04,675.28 730.27,670.77 C786.61,669.11 843.19,667.42 898.61,658.71 C929.39,653.87 961.16,646.19 983.51,627.65 C1011.87,604.12 1018.9,564.28 999.89,534.78 C968.01,485.28 879.89,472.99 857.58,419.88 C845.32,390.64 857.91,358.08 875.74,330.97 C913.98,272.8 978.07,221.77 981.44,155.29 C983.76,109.63 952.95,63.9 905.31,42.29 C855.38,19.64 786.13,22.49 749.31,59.98 C711.36,98.54 644.7,113.39 587.55,111.4 Z" opacity=".1"/>
    <path fill="url(#empty-a)" fill-rule="nonzero" d="M536.12,361.74 L505.49,341.09 L520.94,318.09 L440.04,311.64 L410.97,334.12 L374.58,313.72 L344.23,317.37 L343.87,309.37 C343.49433,301.029978 342.656376,292.717212 341.36,284.47 C341.49,281.97 341.58,279.1 341.57,275.98 C341.57,262.83 339.79,245.4 331.97,233.78 L333.77,217.6 L319.17,200.35 C321.514646,195.679596 324.188038,191.181613 327.17,186.89 C327.67,186.17 328.17,185.47 328.71,184.79 C347.66,183.42 362.61,167.84 362.61,148.79 C362.61,147.91 362.61,147.03 362.51,146.16 C362.51,145.81 362.44,145.45 362.4,145.1 C364.25,146.1 366.12,147.1 367.99,148.1 C368.34,148.6 368.74,149.1 369.18,149.69 L369.27,149.8 L369.83,150.49 L370.01,150.7 C370.21,150.94 370.42,151.17 370.63,151.41 L370.77,151.57 C371.3,152.16 371.86,152.76 372.46,153.35 C372.531429,153.408124 372.598292,153.471644 372.66,153.54 L373.41,154.24 L373.62,154.43 C374.26,155 374.94,155.55 375.62,156.07 L375.84,156.23 L376.7,156.82 L376.98,157 C377.31,157.2 377.65,157.41 377.98,157.6 L378.1,157.67 C378.49,157.88 378.89,158.08 379.29,158.27 L379.49,158.35 C379.83,158.496667 380.163333,158.636667 380.49,158.77 L380.8,158.88 C381.15,159 381.49,159.11 381.85,159.21 L382.07,159.27 C382.51,159.38 382.95,159.47 383.4,159.54 L383.45,159.54 C383.873729,159.608545 384.301143,159.651954 384.73,159.67 L385.02,159.67 C385.403071,159.690052 385.786929,159.690052 386.17,159.67 L386.42,159.67 C386.899672,159.642376 387.377221,159.585604 387.85,159.5 C390.087443,159.205815 392.23576,158.435149 394.15,157.24 C394.637366,156.914092 395.069487,156.512355 395.43,156.05 C397.43,153.43 395.23,150.56 395.23,150.56 C394.45,148.7 389.39,147.39 389.39,147.39 C389.39,147.39 373.39,140.71 373.39,135.39 C373.39,130.07 369.39,102.47 328.1,96.16 C328.1,96.16 301.24,94.65 293.69,109.03 L293.53,110.71 C291.31,112.1 289.47,114.89 287.28,115.71 C286.33384,115.913217 285.421377,116.24992 284.57,116.71 L284.57,116.52 C284.317183,116.741117 284.109973,117.009471 283.96,117.31 C283.489582,118.246012 283.207578,119.265302 283.13,120.31 C282.90471,121.586165 282.461583,122.814068 281.82,123.94 C281.641126,124.259937 281.440661,124.567315 281.22,124.86 L281.05,125.13 C282.210979,125.220476 283.376757,125.031894 284.45,124.58 C284.280877,125.949095 283.945054,127.292388 283.45,128.58 C284.748206,128.621967 285.951658,127.903022 286.53,126.74 L286.53,126.66 L286.66,126.48 C286.911467,126.017076 287.11904,125.531624 287.28,125.03 L287.17,125.15 C287.37,124.5 287.55,123.84 287.77,123.2 C287.870794,122.839502 288.036877,122.500557 288.26,122.2 C288.801278,121.654334 289.569578,121.398234 290.33,121.51 L289.92,130.18 L290.1,130.18 C289.859134,130.810665 289.564726,131.419554 289.22,132 C287.8,134.3 285.22,135.87 284.27,138.39 C283.86039,139.605422 283.703846,140.891813 283.81,142.17 C283.81,142.92 283.9,143.68 283.96,144.43 L283.96,144.37 C284.1,146.37 284.14,148.27 283.06,149.88 C282.32,150.98 281.13,151.81 280.72,153.06 C280.606584,153.40831 280.555798,153.773965 280.57,154.14 C280.650232,155.23586 280.878991,156.315738 281.25,157.35 C281.254336,157.330235 281.254336,157.309765 281.25,157.29 C281.499408,158.05081 281.55779,158.861299 281.42,159.65 C280.97,161.65 278.54,163.32 278.66,165.23 C278.653139,165.4812 278.690369,165.731657 278.77,165.97 C279.23754,166.902928 280.047138,167.619386 281.03,167.97 C282.571775,168.846734 284.342492,169.237129 286.11,169.09 C286.772468,168.97031 287.413037,168.751167 288.01,168.44 C287.31,170.05 286.59,171.64 285.86,173.15 C285.75,173.39 285.63,173.63 285.51,173.87 C285.51,173.87 279.33,169.74 275.82,178.16 C274.795352,179.909763 274.06243,181.814684 273.65,183.8 C273.474152,184.594161 273.226465,185.370691 272.91,186.12 C271.351735,188.758049 269.019572,190.852806 266.23,192.12 C259.07,195.4 230.15,231.47 229.64,240.81 C229.389714,244.455944 228.773277,248.067461 227.8,251.59 C225.523439,259.885407 224.938508,268.553951 226.08,277.08 C226.43733,279.835473 227.029484,282.555369 227.85,285.21 C230.92,294.54 232.97,311.95 232.97,311.95 L236.29,342.17 C236.166753,346.340921 236.347229,350.51528 236.83,354.66 C233.44,358.53 219.83,374.66 225.03,379.05 C229.03,382.51 236.03,381.94 239.96,381.23 C236.65,389.42 231.44,403.66 230.75,413.44 C229.75,427.91 232.46,447.08 236.75,454.44 C241.04,461.8 255.34,480.68 255.34,480.68 C255.34,480.68 254.67,506.58 259.78,515.99 C264.89,525.4 266.95,544.92 266.95,544.92 C266.95,544.92 271.72,561.4 269.33,567.46 C266.94,573.52 273.76,578.56 266.6,582.59 C259.44,586.62 250.28,677.45 250.28,677.45 C250.28,677.45 246.59,736.98 250.28,740.01 C250.477456,740.153545 250.688457,740.277467 250.91,740.38 L250.91,760.38 C250.91,760.38 248.35,764.58 258.76,765.43 C265.89,766 286.1,767.29 298.09,768.04 L307.38,768.62 C307.38,768.62 329.38,773 339.1,768.62 C348.82,764.24 366.05,764.34 363.49,752.77 C363.150545,751.195474 362.695991,749.647984 362.13,748.14 C359.32,740.96 354.55,740.14 345.76,738.14 C345.25,738.03 344.76,737.93 344.31,737.85 C335.05,736.24 332.01,740.55 326.82,734.94 C322.31,730.09 307.95,724.66 303.06,722.94 C303.18,722.58 303.33,722.23 303.45,721.86 C302.0653,721.625079 300.777416,720.996758 299.74,720.05 L312.99,720.89 L320.88,721.38 C320.88,721.38 339.58,725.11 347.88,721.38 C356.18,717.65 370.78,717.75 368.6,707.92 C368.312843,706.580485 367.928493,705.263668 367.45,703.98 C365.06,697.88 361,697.21 353.53,695.52 C353.1,695.43 352.7,695.34 352.3,695.27 C344.43,693.9 341.85,697.56 337.44,692.8 C333.66,688.74 321.73,684.19 317.44,682.64 C317.44,680.42 314.44,677.26 312.55,674.09 C310.33,670.39 314.43,657.44 314.43,657.44 L316.77,603.71 C317.661105,603.313087 318.603712,603.043771 319.57,602.91 C319.57,602.91 330.15,592.81 327.76,582.05 C327.273032,578.795598 327.019053,575.510579 327,572.22 C330.48,568.99 335.27,564.22 336.63,561.28 C338.85,556.49 336.63,533.28 336.63,533.28 L336.63,444.53 L354.33,446.32 L370.39,447.97 L375.28,448.47 L391.34,450.09 L428.25,453.82 L461.51,447.52 L475.9,444.8 L505.49,439.2 L505.49,366.8 L536.12,361.74 Z M292.51,121.83 L290.45,121.61 C291.13,121.64 291.85,121.77 292.51,121.83 Z"/>
    <path fill="#EFB7B9" d="M464.33,408.75 C454.33,423.06 418.38,415.48 418.38,415.48 L390.52,389.41 L386.77,385.88 L393.06,372.52 C393.06,372.52 395.06,373.07 398.49,374.05 C416.5,379.28 472.77,396.72 464.33,408.75 Z"/>
    <path fill="#000" d="M398.47,374.05 C397.24,378.33 393.87,384.74 390.52,389.41 L386.77,385.88 L393.06,372.52 C393.06,372.52 395.08,373.07 398.47,374.05 Z" opacity=".1"/>
    <path fill="#DCE6F2" d="M302.92,223.39 C302.92,223.39 277.24,234.78 278.5,262.75 C279.406615,280.769599 281.369991,298.72046 284.38,316.51 C284.38,316.51 279.13,358.6 300.99,369.45 C322.85,380.3 343.08,389.22 343.08,389.22 C343.08,389.22 377.28,392.9 381.53,394.42 C385.78,395.94 399.06,372.7 396.61,369.08 C394.16,365.46 362.77,357.87 358.77,351.83 C354.77,345.79 345.52,342.06 345.52,342.06 C345.52,342.06 335.97,336.28 335.32,331.06 C334.67,325.84 337.19,321.95 337.83,319.66 C338.47,317.37 340.09,295.26 340.09,295.26 C340.09,295.26 350.87,216.56 302.92,223.39 Z"/>
    <path fill="#000" d="M319.87 315.36C319.87 315.36 284.64 321.26 288.05 333.59 288.05 333.59 300.84 320.28 319.87 315.36zM320.14 320.35C320.14 320.35 300.77 336.16 304.56 336.97 308.35 337.78 320.14 320.35 320.14 320.35zM329.45 325.86C329.45 325.86 324.26 336.49 327.45 335.77 330.64 335.05 329.45 325.86 329.45 325.86z" opacity=".1"/>
    <path fill="#000" d="M399.77,375.18 L397.63,374.57 C398.24,372.57 398.41,370.95 397.91,370.2 C395.46,366.58 364.09,359 360.1,352.95 C356.11,346.9 346.85,343.18 346.85,343.18 C346.85,343.18 337.3,337.4 336.65,332.18 C336,326.96 338.52,323.07 339.16,320.78 C339.8,318.49 341.42,296.37 341.42,296.37 C341.42,296.37 352.17,217.68 304.22,224.51 C304.22,224.51 278.54,235.91 279.79,263.88 C280.69696,281.900033 282.663693,299.851069 285.68,317.64 C285.68,317.64 280.43,359.73 302.29,370.58 C324.15,381.43 344.38,390.35 344.38,390.35 C344.38,390.35 378.57,394.02 382.83,395.55 C384.44,396.13 387.35,393.14 390.2,389.03 L391.82,390.54 L419.68,416.6 C419.68,416.6 455.63,424.19 465.63,409.88 C474.08,397.84 417.82,380.4 399.77,375.18 Z" opacity=".1"/>
    <path fill="#965D7B" d="M288.14,118.41 C287.161036,118.601371 286.223397,118.963563 285.37,119.48 C284.37,120.31 284.37,121.73 284.12,122.97 C283.826322,124.69493 283.142233,126.329905 282.12,127.75 C283.257916,127.833481 284.399363,127.644954 285.45,127.2 C285.278835,128.568714 284.943073,129.911763 284.45,131.2 C285.722685,131.232373 286.896379,130.51642 287.45,129.37 C287.979124,128.243147 288.397749,127.067648 288.7,125.86 C288.793929,125.4988 288.956931,125.159213 289.18,124.86 C290.1,123.77 291.81,124.26 293.23,124.4 C295.636537,124.602912 297.963918,123.485157 299.31,121.48 C300.82,119.19 300.91,113.33 297.31,112.71 C293.55,112.09 291.21,117.27 288.14,118.41 Z"/>
    <g fill="#000" opacity=".1" transform="translate(282 119)">
      <path d="M3.27 1.71C3.36 1.22 3.42.71 3.53.22 2.58 1.05 2.53 2.46 2.28 3.71 2.15404148 4.4312152 1.9563947 5.13805369 1.69 5.82 2.47738498 4.56501052 3.01395423 3.16925127 3.27 1.71zM3.59 9.97C4.08797057 8.68331087 4.42388503 7.33965303 4.59 5.97 3.5887398 6.39144108 2.5047081 6.57952229 1.42 6.52 1.10425658 7.22331543.71900854 7.89331202.27 8.52 1.40391174 8.60774069 2.54234426 8.42257396 3.59 7.98 3.42388503 9.34965303 3.08797057 10.6933109 2.59 11.98 3.86200371 12.0098298 5.03442915 11.2946503 5.59 10.15 5.83913582 9.69547204 6.04022203 9.21621657 6.19 8.72 5.59369971 9.55337319 4.61327384 10.0247318 3.59 9.97zM12.37 3.17C10.95 3.03 9.23 2.54 8.31 3.63 8.0909908 3.93165142 7.92837117 4.27044233 7.83 4.63 7.74 4.89 7.66 5.16 7.59 5.43 8.54 4.68 10.08 5.08 11.37 5.21 13.7753384 5.40641638 16.0995967 4.29016078 17.45 2.29 17.7531011 1.8044227 17.9791167 1.27480403 18.12.72 16.7293481 2.44116733 14.5746571 3.35925305 12.37 3.17z"/>
    </g>
    <polygon fill="#DCE6F2" points="318.24 201 333.49 219.34 331.5 237.85 313.07 209"/>
    <polygon fill="#000" points="333.48 219.34 331.61 236.75 331.49 237.85 314.86 211.81 313.07 209 313.59 208.19 318.23 201 319.26 202.24" opacity=".1"/>
    <path fill="#EFB7B9" d="M341.4,176.17 C336.24,177.65 331.31,182.73 327.02,188.9 C324.120397,193.157105 321.527191,197.615015 319.26,202.24 C317.85,205.06 316.61,207.77 315.58,210.13 L314.86,211.81 C313.12,215.92 312.15,218.67 312.15,218.67 C312.15,218.67 272.65,188.97 278.9,186.97 C281,186.3 283.76,181.8 286.49,176.13 L286.83,175.41 C288.56,171.77 290.26,167.71 291.77,163.89 C294.86,156.04 297.15,149.22 297.15,149.22 C297.15,149.22 357.15,171.67 341.4,176.17 Z"/>
    <path fill="#444053" d="M365.03,147.55 C365.03,147.55 374.15,164.05 386.4,161.8 C398.65,159.55 393.61,152.94 393.61,152.94 L365.03,147.55 Z"/>
    <path fill="#A36468" d="M347.36,718.7 C339.28,722.39 321.01,718.7 321.01,718.7 L313.31,718.22 C303.31,717.58 286.57,716.5 280.65,716.02 C272.01,715.31 274.13,711.77 274.13,711.77 L274.13,690.38 L316.05,679.76 C316.05,679.76 332.62,685.43 337.16,690.38 C341.47,695.1 343.99,691.47 351.68,692.83 C352.06,692.9 352.46,692.98 352.88,693.08 C360.18,694.75 364.14,695.41 366.48,701.46 C366.950221,702.73105 367.327873,704.034451 367.61,705.36 C369.77,715.1 355.43,715.03 347.36,718.7 Z"/>
    <path fill="#000" d="M366.48,701.46 C364.977879,702.398598 363.398892,703.208163 361.76,703.88 C356.26,706.39 351.03,709.45 345.47,711.82 C339.91,714.19 333.92,715.88 327.9,715.43 C324.75,715.2 321.53,714.43 318.52,715.33 C316.658503,716.048748 314.905255,717.021279 313.31,718.22 C303.31,717.58 286.57,716.5 280.65,716.02 C272.01,715.31 274.13,711.77 274.13,711.77 L274.13,709.27 C274.44,709.27 274.79,709.18 275.19,709.15 C277.259468,709.116925 279.320292,709.424359 281.29,710.06 C285.63,711.24 289.95,712.4 294.29,713.56 C295.011412,710.837739 296.819071,708.531166 299.29,707.18 C301.767138,705.865022 304.547368,705.226879 307.35,705.33 C314.08,705.42 320.45,708.61 327.17,708.93 C329.048748,709.102742 330.940202,708.785777 332.66,708.01 C333.58,707.55 334.39,706.88 335.29,706.37 C336.73035,705.673239 338.252148,705.159255 339.82,704.84 C344.226776,703.743044 348.553506,702.346463 352.77,700.66 C353.97,700.19 355.37,699.34 355.21,698.06 C355,696.36 352.33,696.16 351.63,694.6 C351.379615,694.029727 351.409191,693.37536 351.71,692.83 C352.09,692.9 352.49,692.98 352.91,693.08 C360.18,694.75 364.14,695.41 366.48,701.46 Z" opacity=".1"/>
    <path fill="#A36468" d="M338.82,765.5 C329.32,769.84 307.82,765.5 307.82,765.5 L298.77,764.97 C287.05,764.22 267.31,762.97 260.34,762.38 C250.17,761.54 252.67,757.38 252.67,757.38 L252.67,732.17 L302,719.67 C302,719.67 321.5,726.34 326.84,732.17 C331.91,737.72 334.84,733.45 343.93,735.05 C344.38,735.13 344.85,735.23 345.34,735.34 C353.93,737.34 358.59,738.09 361.34,745.21 C361.896763,746.704829 362.341328,748.239079 362.67,749.8 C365.15,761.26 348.32,761.17 338.82,765.5 Z"/>
    <path fill="#000" d="M361.32,745.21 C359.552999,746.313611 357.696482,747.266958 355.77,748.06 C349.3,751.01 343.14,754.61 336.6,757.4 C330.06,760.19 323.01,762.17 315.92,761.65 C312.22,761.38 308.43,760.45 304.92,761.53 C302.720679,762.386526 300.650922,763.544244 298.77,764.97 C287.05,764.22 267.31,762.97 260.34,762.38 C250.17,761.54 252.67,757.38 252.67,757.38 L252.67,754.44 C253.084053,754.372386 253.501248,754.32566 253.92,754.3 C256.356144,754.255504 258.782685,754.61712 261.1,755.37 L276.39,759.49 C277.250805,756.278207 279.395405,753.562196 282.32,751.98 C285.234648,750.426248 288.50948,749.673968 291.81,749.8 C299.73,749.91 307.22,753.66 315.13,754.04 C317.332885,754.240946 319.550452,753.872499 321.57,752.97 C322.66,752.42 323.57,751.63 324.67,751.04 C326.361251,750.21179 328.152901,749.60673 330,749.24 C335.157036,747.938656 340.221595,746.295013 345.16,744.32 C346.57,743.76 348.22,742.76 348.03,741.26 C347.78,739.26 344.64,739.02 343.81,737.18 C343.526612,736.507301 343.563386,735.742411 343.91,735.1 C344.36,735.18 344.83,735.28 345.32,735.39 C353.91,737.31 358.57,738.09 361.32,745.21 Z" opacity=".1"/>
    <path fill="#444053" d="M317.32 592.51L314.65 655.34C314.65 655.34 310.65 668.17 312.82 671.84 314.99 675.51 318.65 679.17 317.32 681.34 315.99 683.51 299.99 706.97 294.82 697.97 289.65 688.97 284.55 649.97 284.55 649.97L289.32 601.8 317.32 592.51zM328.9 435.97L336.32 445.89 336.32 532.17C336.32 532.17 338.49 555.17 336.32 559.92 334.15 564.67 323.15 574.17 323.15 574.17L313.9 526.67 315.9 476.42 328.9 435.97z"/>
    <path fill="#000" d="M317.32 592.51L314.65 655.34C314.65 655.34 310.65 668.17 312.82 671.84 314.99 675.51 318.65 679.17 317.32 681.34 315.99 683.51 299.99 706.97 294.82 697.97 289.65 688.97 284.55 649.97 284.55 649.97L289.32 601.8 317.32 592.51zM328.9 435.97L336.32 445.89 336.32 532.17C336.32 532.17 338.49 555.17 336.32 559.92 334.15 564.67 323.15 574.17 323.15 574.17L313.9 526.67 315.9 476.42 328.9 435.97z" opacity=".1"/>
    <path fill="#444053" d="M336.32,399.17 L336.32,445.84 L327.99,482.17 C327.99,482.17 325.32,569.84 327.65,580.5 C329.98,591.16 319.65,601.17 319.65,601.17 C319.65,601.17 313.65,601.84 313.65,606.5 C313.65,611.16 303.65,624.5 303.65,624.5 L303.98,650.5 C303.98,650.5 308.32,699.17 301.65,708.5 C294.98,717.83 303.98,719.17 303.98,719.17 C295.65,746.5 255.65,740.17 252.04,737.17 C248.43,734.17 252.04,675.17 252.04,675.17 C252.04,675.17 260.98,585.17 267.98,581.17 C274.98,577.17 268.32,572.17 270.65,566.17 C272.98,560.17 268.32,543.84 268.32,543.84 C268.32,543.84 266.32,524.5 261.32,515.17 C256.32,505.84 256.98,480.17 256.98,480.17 C256.98,480.17 242.98,461.5 238.82,454.17 C234.66,446.84 231.98,427.84 232.98,413.5 C233.66,403.81 238.75,389.7 241.98,381.58 C243.53,377.69 244.65,375.17 244.65,375.17 L245.6,375.42 L300.22,389.72 L336.32,399.17 Z"/>
    <path fill="#000" d="M341.4,176.17 C336.24,177.65 331.31,182.73 327.02,188.9 L325.9,188.9 C313.100583,188.909051 301.274624,182.069069 294.9,170.97 C293.591236,168.710579 292.538083,166.312475 291.76,163.82 C294.85,155.97 297.14,149.15 297.14,149.15 C297.14,149.15 357.15,171.67 341.4,176.17 Z" opacity=".1"/>
    <path fill="#EFB7B9" d="M361.65,151.17 C361.674286,166.164511 352.338816,179.580856 338.270591,184.769402 C324.202367,189.957947 308.391175,185.816021 298.673625,174.396512 C288.956075,162.977004 287.397345,146.706796 294.77,133.65 C295.853742,131.714085 297.11946,129.885824 298.55,128.19 C300.908175,125.380573 303.679857,122.946078 306.77,120.97 C317.38772,114.222726 330.770371,113.552748 342.008893,119.205829 C353.247414,124.85891 360.687516,136.002926 361.6,148.55 C361.62,149.43 361.65,150.3 361.65,151.17 Z"/>
    <path fill="#000" d="M331.61,236.75 L331.49,237.85 L314.86,211.85 C313.12,215.96 312.15,218.71 312.15,218.71 C312.15,218.71 272.65,188.97 278.9,186.97 C281,186.3 283.76,181.8 286.49,176.13 L286.83,175.41 C289.73,184.05 306.58,201.32 313.59,208.24 C314.4,209.04 315.07,209.7 315.59,210.18 L316.66,211.18 L317.22,211.74 C319.77,214.37 330.53,225.97 331.61,236.75 Z" opacity=".1"/>
    <path fill="#DCE6F2" d="M344.04,324.97 L342.22,383.54 L341.9,393.97 C341.9,393.97 320.34,391.97 300.22,389.77 C284.02,388 268.75,386.09 266.4,384.97 C263.4,383.56 256.97,382.47 251.9,381.78 C247.98,381.25 244.9,380.97 244.9,380.97 C244.9,380.97 243.75,381.31 241.98,381.63 C238.12,382.33 231.34,382.9 227.39,379.47 C222.34,375.08 235.61,359.13 238.92,355.3 L239.65,354.47 L238.4,342.92 L235.15,312.97 C235.15,312.97 233.15,295.72 230.15,286.47 C229.347955,283.840098 228.769235,281.147214 228.42,278.42 C227.305351,269.971709 227.876354,261.386267 230.1,253.16 C231.050049,249.664523 231.652969,246.083852 231.9,242.47 C232.4,233.22 260.65,197.47 267.65,194.22 C270.798916,192.751567 273.332765,190.224796 274.81,187.08 C275.29769,186.091196 275.663694,185.04691 275.9,183.97 C278.9,170.97 286.49,176.13 286.49,176.13 C288.32,186.3 316.65,213.22 316.65,213.22 L317.21,213.78 C320.02,216.66 332.54,230.18 331.65,241.72 C331.472158,246.015095 332.113575,250.304783 333.54,254.36 C339.302523,272.504725 342.615157,291.337978 343.39,310.36 L344.04,324.97 Z"/>
    <path fill="#000" d="M303.9 255.42C303.9 255.42 296.9 272.42 291.65 275.17 286.4 277.92 306.4 280.97 303.9 255.42zM309.15 287.17C309.15 287.17 293.15 289.17 293.15 292.17 293.15 295.17 309.15 287.17 309.15 287.17zM325.9 306.67C325.9 306.67 302.65 356.17 296.15 357.67 289.65 359.17 325.9 306.67 325.9 306.67zM316.21 215.73L296.98 224.09 273.77 189.03C274.25769 188.041196 274.623694 186.99691 274.86 185.92 277.86 172.92 285.45 178.08 285.45 178.08 287.28 188.25 315.61 215.17 315.61 215.17L316.21 215.73z" opacity=".1"/>
    <path fill="#DCE6F2" d="M317.21,213.73 L297.98,222.09 L274.77,187.03 C275.25769,186.041196 275.623694,184.99691 275.86,183.92 C278.86,170.92 286.45,176.08 286.45,176.08 C288.28,186.25 316.61,213.17 316.61,213.17 L317.21,213.73 Z"/>
    <path fill="#000" d="M341.9 393.97C341.9 393.97 320.34 391.97 300.22 389.77L336.32 399.22 336.32 410.22C334.74 411.65 333.37 412.39 332.48 412.01 328.32 410.26 294.37 404.76 294.37 404.76 294.37 404.76 274.65 394.76 253.37 382.76 252.853471 382.473849 252.352745 382.160061 251.87 381.82 249.38875 380.135337 247.250725 377.993919 245.57 375.51 241.64 369.82 239.72 362.51 238.89 355.34 238.423388 351.23088 238.249616 347.093776 238.37 342.96 238.473077 338.272703 238.900768 333.598178 239.65 328.97 237.591983 311.044399 236.590253 293.013254 236.65 274.97 236.9 246.97 263.15 236.97 263.15 236.97 311.4 232.72 296.44 310.72 296.44 310.72 296.44 310.72 293.65 332.72 292.89 334.97 292.13 337.22 289.4 340.97 289.77 346.22 290.14 351.47 299.36 357.75 299.36 357.75 299.36 357.75 308.36 361.97 312.07 368.22 314.77 372.83 332.31 379.08 342.22 383.54L341.9 393.97zM358.06 128.97C358.078415 130.617113 357.737141 132.248401 357.06 133.75 356.54735 134.975323 355.952668 136.164687 355.28 137.31 354.227528 139.416785 352.733658 141.272185 350.9 142.75 348.59 144.4 345.67 144.86 342.9 145.53 340.13 146.2 337.25 147.27 335.67 149.63 334.813705 151.147119 334.241019 152.807571 333.98 154.53 333.715093 156.250946 333.027958 157.879456 331.98 159.27 330.857643 160.666421 328.932928 161.127036 327.3 160.39 326.463673 159.826182 325.829476 159.009784 325.49 158.06 324.35 155.49 324.06 152.64 323.6 149.87 323.14 147.1 322.49 144.25 320.79 142.02 319.09 139.79 316.08 138.32 313.41 139.19 311.604256 139.885168 310.15983 141.286261 309.41 143.07 308.671044 144.837293 308.16351 146.692649 307.9 148.59 306.66 155.376667 305.196667 162.123333 303.51 168.83 303.458542 169.104923 303.345743 169.364701 303.18 169.59 302.914146 169.854982 302.555333 170.005683 302.18 170.01 299.94 170.31 297.79 168.74 295.53 168.91 295.297123 168.925511 295.066157 168.962332 294.84 169.02 287.355027 156.011559 288.797211 139.712085 298.45 128.22L298.63 128.17C300.133371 127.636319 301.499554 126.775624 302.63 125.65 304.073557 124.205439 305.410399 122.658043 306.63 121.02L307.43 120.02C309.728559 117.250928 312.346769 114.763628 315.23 112.61 316.017031 111.96522 316.919832 111.476486 317.89 111.17 318.720262 111.008253 319.571151 110.98124 320.41 111.09 323.863487 111.504577 327.345174 111.635015 330.82 111.48 333.241243 111.099394 335.681601 110.852353 338.13 110.74 344.46 110.92 349.86 115.39 353.86 120.29 356.01 122.8 357.93 125.69 358.06 128.97z" opacity=".1"/>
    <path fill="#965D7B" d="M290.1,134.6 C288.71,136.88 286.2,138.43 285.26,140.93 C283.88,144.56 286.21,149.08 284.07,152.32 C283.36,153.41 282.19,154.22 281.79,155.47 C281.11,157.58 282.97,159.83 282.49,162 C282.01,164.17 279.15,166 279.91,168.12 C280.359123,169.044572 281.146935,169.760764 282.11,170.12 C283.625252,170.989223 285.36928,171.376397 287.11,171.23 C289.84,170.78 291.87,168.1 294.64,167.9 C296.89,167.74 299.04,169.3 301.28,169.01 C301.655417,168.996938 302.012268,168.843492 302.28,168.58 C302.449936,168.357137 302.563184,168.096324 302.61,167.82 C304.29,161.12 305.756667,154.373333 307.01,147.58 C307.26538,145.682104 307.769721,143.82613 308.51,142.06 C309.265632,140.280232 310.708048,138.881088 312.51,138.18 C315.18,137.32 318.18,138.78 319.89,141.01 C321.6,143.24 322.25,146.09 322.71,148.86 C323.17,151.63 323.46,154.48 324.59,157.05 C324.933355,158.003165 325.570682,158.822585 326.41,159.39 C327.91,160.26 329.93,159.57 331.08,158.27 C332.133524,156.878904 332.821184,155.24571 333.08,153.52 C333.340888,151.800695 333.913619,150.143501 334.77,148.63 C336.35,146.27 339.24,145.2 342,144.53 C344.76,143.86 347.67,143.39 350,141.74 C351.831207,140.263745 353.324748,138.412163 354.38,136.31 C355.86,133.73 357.24,130.93 357.12,127.96 C356.99,124.72 355.07,121.83 353.02,119.31 C349.02,114.41 343.61,109.94 337.28,109.77 C334.830881,109.87241 332.389957,110.119508 329.97,110.51 C326.494914,110.666272 323.012848,110.532475 319.56,110.11 C318.720397,110.00957 317.870299,110.039931 317.04,110.2 C316.068702,110.496634 315.16734,110.98643 314.39,111.64 C311.503953,113.790044 308.882401,116.273973 306.58,119.04 C305.095461,121.008401 303.485449,122.878954 301.76,124.64 C300.629092,125.767413 299.263267,126.631297 297.76,127.17 C296.76,127.45 295.76,127.25 294.81,127.56 C291.86,128.49 291.47,132.34 290.1,134.6 Z"/>
    <path fill="#000" d="M386.4,161.79 C378.4,163.26 371.77,156.79 368.1,152.07 C366.972832,150.636536 365.947009,149.126205 365.03,147.55 L392.49,152.73 L393.6,152.94 C393.6,152.94 398.65,159.55 386.4,161.79 Z" opacity=".1"/>
    <g fill="#000" opacity=".1" transform="translate(279 126)">
      <path d="M3.49 33.14C3.60191065 31.8321808 3.40317683 30.5164258 2.91 29.3 2.91 29.4 2.82 29.5 2.79 29.6 2.36 30.94 2.94 32.33 3.31 33.72 3.38946412 33.5332529 3.44977304 33.3389242 3.49 33.14zM5.87 16.77C5.76711955 18.1527993 5.79390305 19.5421931 5.95 20.92 6.05252989 19.5371911 6.02574703 18.14783 5.87 16.77zM75.32 7.42C74.2675279 9.52678458 72.7736579 11.3821849 70.94 12.86 68.63 14.51 65.72 14.97 62.94 15.64 60.16 16.31 57.29 17.38 55.71 19.74 54.855129 21.2577597 54.2825346 22.9179447 54.02 24.64 53.759535 26.3652468 53.0720398 27.9980478 52.02 29.39 50.87 30.69 48.85 31.39 47.35 30.51 46.5106816 29.9425846 45.8733551 29.1231647 45.53 28.17 44.4 25.6 44.1 22.76 43.65 19.98 43.2 17.2 42.53 14.36 40.83 12.13 39.13 9.9 36.12 8.43 33.45 9.3 31.6461601 9.99814336 30.2027462 11.3982549 29.45 13.18 28.7097206 14.9461303 28.20538 16.8021036 27.95 18.7 26.7033333 25.4933333 25.2366667 32.24 23.55 38.94 23.5031842 39.2163237 23.3899365 39.4771366 23.22 39.7 22.952268 39.9634915 22.5954166 40.1169376 22.22 40.13 19.98 40.42 17.83 38.86 15.58 39.02 12.81 39.22 10.78 41.9 8.05 42.34 6.30863499 42.4961744 4.56169954 42.1083547 3.05 41.23 2.35493192 40.9309541 1.73120457 40.4878691 1.22 39.93.745924922 40.6088479.609542966 41.4676856.85 42.26 1.29047389 43.191012 2.08134572 43.9099864 3.05 44.26 4.56169954 45.1383547 6.30863499 45.5261744 8.05 45.37 10.78 44.93 12.81 42.25 15.58 42.05 17.83 41.89 19.98 43.45 22.22 43.16 22.5954166 43.1469376 22.952268 42.9934915 23.22 42.73 23.3899365 42.5071366 23.5031842 42.2463237 23.55 41.97 25.23 35.3033333 26.6966667 28.5566667 27.95 21.73 28.20538 19.8321036 28.7097206 17.9761303 29.45 16.21 30.2027462 14.4282549 31.6461601 13.0281434 33.45 12.33 36.12 11.46 39.12 12.93 40.83 15.16 42.54 17.39 43.19 20.24 43.65 23.01 44.11 25.78 44.4 28.63 45.53 31.2 45.8733551 32.1531647 46.5106816 32.9725846 47.35 33.54 48.85 34.41 50.87 33.72 52.02 32.42 53.0720398 31.0280478 53.759535 29.3952468 54.02 27.67 54.2825346 25.9479447 54.855129 24.2877597 55.71 22.77 57.29 20.41 60.18 19.35 62.94 18.67 65.7 17.99 68.61 17.54 70.94 15.89 72.7736579 14.4121849 74.2675279 12.5567846 75.32 10.45 76.8 7.88 78.18 5.08 78.06 2.11 78.040322 1.72813478 78.000265 1.34759291 77.94.97 77.4575263 3.25880319 76.5702708 5.44307716 75.32 7.42z"/>
    </g>
    <path fill="#000" d="M357.1 133.72C359.664436 138.279507 361.184355 143.351595 361.55 148.57 352.64 143.57 344.26 138.08 340.03 136.17 332.66 132.84 305.1 133.34 294.74 133.65 295.823742 131.714085 297.08946 129.885824 298.52 128.19 300.887287 125.378238 303.669218 122.943627 306.77 120.97 315.069177 115.702975 325.170076 114.083232 334.699995 116.491249 344.229914 118.899265 352.348971 125.12282 357.15 133.7L357.1 133.72zM388.9 157.55C384.09 159.03 376.24 156.17 368.1 152.07 366.972832 150.636536 365.947009 149.126205 365.03 147.55L392.49 152.73C394.31 153.97 394.77 155.74 388.9 157.55z" opacity=".1"/>
    <path fill="#444053" d="M328.03,99.05 C328.03,99.05 301.78,97.55 294.4,111.8 L293.21,124.43 L291.21,124.21 L290.81,132.8 C290.81,132.8 330.93,131.05 340.06,135.17 C349.19,139.29 377.56,160.05 388.93,156.55 C400.3,153.05 387.93,149.8 387.93,149.8 C387.93,149.8 372.28,143.17 372.28,137.97 C372.28,132.77 368.4,105.3 328.03,99.05 Z"/>
    <path fill="#000" d="M277.4 567.25C277.4 567.25 294.15 583.5 301.4 582.25 301.4 582.25 280.9 580.5 277.4 567.25zM273.9 574.78C273.9 574.78 275.4 583.14 279.4 582.32 283.4 581.5 273.9 574.78 273.9 574.78zM300.15 714.5C300.15 714.5 276.37 733 280.38 733.5 284.39 734 300.15 714.5 300.15 714.5z" opacity=".1"/>
    <polygon fill="#00BABA" points="331.96 347.33 408.96 334.8 408.96 407.7 335.8 403.87"/>
    <polygon fill="#000" points="331.96 347.33 408.96 334.8 408.96 407.7 335.8 403.87" opacity=".05"/>
    <polygon fill="#00BABA" points="408.96 334.8 501.3 341.71 496.19 405.15 408.96 407.7"/>
    <polygon fill="#000" points="408.96 334.8 501.3 341.71 496.19 405.15 408.96 407.7" opacity=".1"/>
    <polygon fill="#00BABA" points="437.35 312.55 408.96 334.8 501.3 341.71 516.39 318.94"/>
    <polygon fill="#00BABA" points="304.08 323.03 373.4 314.59 408.96 334.8 331.96 347.33"/>
    <polygon fill="#00BABA" points="425.84 353.73 425.84 453.4 389.77 449.7 374.08 448.1 369.3 447.6 353.62 445.99 331.96 443.77 331.96 347.33 408.95 352.57"/>
    <polygon fill="#00BABA" points="501.3 341.71 501.3 438.91 472.39 444.46 458.33 447.16 425.84 453.4 425.84 353.73"/>
    <polygon fill="#000" points="501.3 341.71 501.3 438.91 472.39 444.46 458.33 447.16 425.84 453.4 425.84 353.73" opacity=".05"/>
    <polygon fill="#00BABA" points="304.08 368.31 331.96 347.33 425.84 353.73 412.02 377.01"/>
    <polygon fill="#FFF" points="304.08 368.31 331.96 347.33 425.84 353.73 412.02 377.01" opacity=".1"/>
    <polygon fill="#00BABA" points="501.3 341.71 425.84 353.73 450.4 375.73 531.23 362.17"/>
    <polygon fill="#FFF" points="425.84 353.73 450.4 375.73 531.23 362.17 501.3 341.71" opacity=".1"/>
    <polygon fill="#FFF" points="472.39 444.46 458.33 447.16 458.33 426.39 471.5 423.07" opacity=".1"/>
    <polygon fill="#FFF" points="389.77 435.96 389.77 449.7 374.08 448.1 374.08 435.96" opacity=".1"/>
    <polygon fill="#FFF" points="369.3 440.29 369.3 447.6 353.62 445.99 353.62 440.29" opacity=".1"/>
    <path fill="#000" d="M416.4,428.67 C405.65,442.42 370.15,432.92 370.15,432.92 L343.77,405.4 L340.19,401.67 L347.19,388.67 C347.19,388.67 349.19,389.33 352.53,390.49 C370.21,396.67 425.45,417.1 416.4,428.67 Z" opacity=".1"/>
    <path fill="#EFB7B9" d="M415.4,426.67 C404.65,440.42 369.15,430.92 369.15,430.92 L342.77,403.4 L339.19,399.67 L346.19,386.67 C346.19,386.67 348.19,387.33 351.53,388.49 C369.21,394.67 424.45,415.1 415.4,426.67 Z"/>
    <path fill="#000" d="M351.49,388.49 C350.03,392.69 346.32,398.91 342.73,403.4 L339.15,399.67 L346.15,386.67 C346.15,386.67 348.16,387.33 351.49,388.49 Z" opacity=".1"/>
    <path fill="#DCE6F2" d="M264.15,232.97 C264.15,232.97 237.9,242.97 237.65,270.97 C237.590253,289.013254 238.591983,307.044399 240.65,324.97 C240.65,324.97 233.15,366.72 254.4,378.72 C275.65,390.72 295.4,400.72 295.4,400.72 C295.4,400.72 329.35,406.22 333.52,407.97 C337.69,409.72 352.18,387.22 349.93,383.47 C347.68,379.72 316.77,370.47 313.1,364.22 C309.43,357.97 300.39,353.76 300.39,353.76 C300.39,353.76 291.17,347.47 290.8,342.22 C290.43,336.97 293.15,333.22 293.92,330.97 C294.69,328.72 297.48,306.72 297.48,306.72 C297.48,306.72 312.4,228.67 264.15,232.97 Z"/>
    <path fill="#000" d="M276.15 325.67C276.15 325.67 240.65 329.67 243.4 342.17 243.4 342.17 256.89 329.56 276.15 325.67zM276.15 330.67C276.15 330.67 256 345.42 259.7 346.42 263.4 347.42 276.15 330.67 276.15 330.67zM285.15 336.67C285.15 336.67 279.4 347.01 282.65 346.47 285.9 345.93 285.15 336.67 285.15 336.67z" opacity=".1"/>
    <path fill="#00BABA" d="M654.77,112.39 C654.77,112.39 616.77,110.1 621.21,136.76 C621.21,136.76 620.32,141.47 624.59,143.61 C624.59,143.61 624.66,141.61 628.49,142.3 C629.853936,142.529547 631.240266,142.596682 632.62,142.5 C634.489808,142.375294 636.267203,141.641153 637.68,140.41 C637.68,140.41 648.37,136 652.53,118.52 C652.53,118.52 655.61,114.7 655.53,113.72 L649.11,116.47 C649.11,116.47 651.3,121.1 649.57,124.95 C649.57,124.95 649.37,116.64 648.13,116.83 C647.88,116.83 644.8,118.44 644.8,118.44 C644.8,118.44 648.57,126.5 645.72,132.37 C645.72,132.37 646.8,122.43 643.62,119.02 L639.1,121.66 C639.1,121.66 643.51,129.99 640.52,136.79 C640.52,136.79 641.29,126.36 638.15,122.3 L634.05,125.49 C634.05,125.49 638.2,133.71 635.67,139.35 C635.67,139.35 635.34,127.21 633.16,126.29 C633.16,126.29 629.58,129.45 629.04,130.75 C629.04,130.75 631.87,136.75 630.11,139.86 C630.11,139.86 629.03,131.77 628.11,131.73 C628.11,131.73 624.54,137.09 624.17,140.73 C624.342899,137.336511 625.401332,134.047439 627.24,131.19 C625.182474,131.579277 623.284202,132.56318 621.78,134.02 C621.78,134.02 622.33,130.23 628.12,129.9 C628.12,129.9 631.12,125.83 631.86,125.58 C631.86,125.58 626.1,125.1 622.61,126.65 C622.61,126.65 625.68,123.08 632.92,124.65 L636.92,121.35 C636.92,121.35 629.34,120.35 626.12,121.46 C626.12,121.46 629.82,118.3 638.01,120.6 L642.41,117.97 C642.41,117.97 635.95,116.57 632.1,117.08 C632.1,117.08 636.16,114.89 643.7,117.26 L646.85,115.85 C646.85,115.85 642.11,114.92 640.73,114.77 C639.35,114.62 639.27,114.24 639.27,114.24 C642.268688,113.740911 645.347127,114.087192 648.16,115.24 C648.16,115.24 654.91,112.81 654.77,112.39 Z"/>
    <path fill="#00BABA" d="M770.23 245.73C770.23 245.73 732.23 243.44 736.67 270.1 736.67 270.1 735.78 274.81 740.05 276.95 740.05 276.95 740.12 274.95 743.96 275.64 745.323936 275.869547 746.710266 275.936682 748.09 275.84 749.937843 275.706027 751.692344 274.976154 753.09 273.76 753.09 273.76 763.79 269.34 767.95 251.86 767.95 251.86 771.02 248.05 770.9 247.07L764.48 249.81C764.48 249.81 766.67 254.44 764.95 258.29 764.95 258.29 764.74 249.98 763.51 250.17 763.26 250.17 760.17 251.78 760.17 251.78 760.17 251.78 763.95 259.85 761.1 265.71 761.1 265.71 762.18 255.77 758.99 252.36L754.52 254.97C754.52 254.97 758.93 263.3 755.94 270.1 755.94 270.1 756.71 259.67 753.57 255.61L749.48 258.81C749.48 258.81 753.62 267.02 751.1 272.66 751.1 272.66 750.77 260.52 748.59 259.6 748.59 259.6 745.01 262.76 744.46 264.06 744.46 264.06 747.3 270.06 745.54 273.17 745.54 273.17 744.46 265.08 743.54 265.04 743.54 265.04 739.97 270.4 739.6 274.04 739.778662 270.646096 740.840341 267.357649 742.68 264.5 740.619877 264.890226 738.718653 265.873858 737.21 267.33 737.21 267.33 737.77 263.54 743.56 263.21 743.56 263.21 746.51 259.14 747.3 258.89 747.3 258.89 741.54 258.41 738.05 259.96 738.05 259.96 741.12 256.39 748.35 258.01L752.35 254.71C752.35 254.71 744.76 253.71 741.55 254.82 741.55 254.82 745.25 251.66 753.44 253.96L757.84 251.33C757.84 251.33 751.37 249.94 747.52 250.44 747.52 250.44 751.59 248.25 759.13 250.62L762.28 249.21C762.28 249.21 757.54 248.28 756.15 248.13 754.76 247.98 754.69 247.6 754.69 247.6 757.691974 247.100612 760.773702 247.446873 763.59 248.6 763.59 248.6 770.35 246.15 770.23 245.73zM539.38 222.06C539.38 222.06 548.13 184.97 521.09 184.84 521.09 184.84 516.6 183.16 513.77 187 513.77 187 515.7 187.41 514.39 191.07 513.936931 192.364217 513.634928 193.706452 513.49 195.07 513.296296 196.928813 513.714086 198.800089 514.68 200.4 514.68 200.4 517.21 211.7 533.68 218.78 533.68 218.78 536.92 222.46 537.9 222.5L536.3 215.71C536.3 215.71 531.36 217.08 527.86 214.71 527.86 214.71 536.09 215.92 536.1 214.71 536.1 214.46 535.1 211.15 535.1 211.15 535.1 211.15 526.51 213.49 521.21 209.68 521.21 209.68 530.82 212.44 534.73 209.89L532.93 204.97C532.93 204.97 523.93 207.9 517.77 203.79 517.77 203.79 527.92 206.33 532.46 203.93L530.01 199.35C530.01 199.35 521.21 202.03 516.08 198.58 516.08 198.58 528.08 200.32 529.38 198.34 529.38 198.34 526.88 194.27 525.69 193.51 525.69 193.51 519.33 195.29 516.53 193.02 516.53 193.02 524.68 193.33 524.87 192.47 524.87 192.47 520.2 188.04 516.64 187.04 519.95758 187.795367 523.021378 189.401362 525.53 191.7 525.493329 189.604203 524.847006 187.564464 523.67 185.83 523.67 185.83 527.31 187.03 526.67 192.83 526.67 192.83 530.17 196.43 530.28 197.25 530.28 197.25 531.73 191.66 530.8 187.95 530.8 187.95 533.8 191.59 530.97 198.44L533.53 202.99C533.53 202.99 535.85 195.69 535.26 192.33 535.26 192.33 537.75 196.51 534.08 204.19L535.93 208.98C535.93 208.98 538.4 202.84 538.56 198.98 538.56 198.98 540.03 203.36 536.4 210.39L537.26 213.73C537.26 213.73 538.98 209.22 539.36 207.88 539.74 206.54 540.13 206.53 540.13 206.53 540.11476 209.572279 539.252549 212.550198 537.64 215.13 537.64 215.13 538.95 222.11 539.38 222.06zM456.16 234.7C456.16 234.7 425.64 211.87 414.73 236.6 414.73 236.6 411.4 240.05 413.79 244.18 413.79 244.18 414.93 242.57 417.79 245.24 418.80302 246.182438 419.924174 247.001485 421.13 247.68 422.763264 248.589434 424.648858 248.940569 426.5 248.68 426.5 248.68 437.86 250.87 450.94 238.56 450.94 238.56 455.61 237.06 456.05 236.18L449.16 234.97C449.16 234.97 448.44 240.04 444.89 242.31 444.89 242.31 449.28 235.25 448.14 234.74 447.91 234.63 444.47 234.24 444.47 234.24 444.47 234.24 443.19 243.06 437.59 246.39 437.59 246.39 443.96 238.68 443.17 234.08L437.94 233.8C437.94 233.8 437.05 243.19 430.81 247.23 430.81 247.23 437.18 238.94 436.81 233.82L431.63 234.24C431.63 234.24 430.58 243.37 425.37 246.69 425.37 246.69 431.76 236.37 430.45 234.41 430.45 234.41 425.72 235.08 424.55 235.86 424.55 235.86 423.64 242.4 420.44 244.06 420.44 244.06 423.99 236.71 423.27 236.2 423.27 236.2 417.34 238.71 415.01 241.57 417.025551 238.831628 419.721104 236.666913 422.83 235.29 420.895651 234.486034 418.76883 234.263622 416.71 234.65 416.71 234.65 419.25 231.79 424.27 234.7 424.27 234.7 428.97 232.93 429.77 233.15 429.77 233.15 425.22 229.58 421.45 228.96 421.45 228.96 425.99 227.66 431.14 232.96L436.33 232.43C436.33 232.43 430.56 227.43 427.25 226.59 427.25 226.59 432.08 225.98 437.65 232.4L442.77 232.63C442.77 232.63 438.14 227.91 434.65 226.21 434.65 226.21 439.24 226.61 444.24 232.74L447.65 233.29C447.65 233.29 444.2 229.91 443.12 229.03 442.04 228.15 442.19 227.78 442.19 227.78 444.971987 229.011934 447.357257 230.992158 449.08 233.5 449.08 233.5 456.03 235.11 456.16 234.7zM557.77 22.59C557.77 22.59 527.25-.25 516.34 24.49 516.34 24.49 513.01 27.94 515.4 32.07 515.4 32.07 516.54 30.46 519.4 33.13 520.418327 34.0675702 521.542599 34.883087 522.75 35.56 524.383012 36.4701325 526.268842 36.8213112 528.12 36.56 528.12 36.56 539.48 38.75 552.56 26.43 552.56 26.43 557.23 24.94 557.66 24.05L550.77 22.86C550.77 22.86 550.06 27.93 546.5 30.2 546.5 30.2 550.9 23.14 549.76 22.63 549.53 22.52 546.09 22.13 546.09 22.13 546.09 22.13 544.77 30.97 539.17 34.28 539.17 34.28 545.53 26.57 544.75 21.97L539.52 21.69C539.52 21.69 538.62 31.08 532.39 35.11 532.39 35.11 538.76 26.82 538.39 21.7L533.22 22.12C533.22 22.12 532.16 31.26 526.95 34.58 526.95 34.58 533.35 24.26 532.04 22.3 532.04 22.3 527.31 22.97 526.14 23.75 526.14 23.75 525.23 30.29 522.03 31.95 522.03 31.95 525.58 24.6 524.86 24.08 524.86 24.08 518.93 26.6 516.6 29.46 518.612505 26.7187091 521.308911 24.5533085 524.42 23.18 522.483664 22.3700553 520.351878 22.1474871 518.29 22.54 518.29 22.54 520.84 19.68 525.86 22.59 525.86 22.59 530.56 20.81 531.36 21.04 531.36 21.04 526.81 17.47 523.04 16.84 523.04 16.84 527.57 15.55 532.72 20.84L537.91 20.31C537.91 20.31 532.15 15.31 528.83 14.46 528.83 14.46 533.66 13.86 539.24 20.28L544.36 20.5C544.36 20.5 539.73 15.78 536.23 14.09 536.23 14.09 540.83 14.49 545.83 20.62L549.23 21.17C549.23 21.17 545.77 17.83 544.69 16.97 543.61 16.11 543.76 15.73 543.76 15.73 546.542826 16.9605807 548.928433 18.941085 550.65 21.45 550.65 21.45 557.6 22.97 557.77 22.59zM674.39 51.52C674.39 51.52 662.19 15.41 639.18 29.6 639.18 29.6 634.48 30.6 634.11 35.31 634.11 35.31 635.96 34.63 636.78 38.43 637.08465 39.7817197 637.544361 41.0937418 638.15 42.34 638.976487 44.0172151 640.323617 45.3818855 641.99 46.23 641.99 46.23 650.11 54.48 667.87 51.75 667.87 51.75 672.56 53.17 673.42 52.68L668.42 47.77C668.42 47.77 664.96 51.54 660.74 51.39 660.74 51.39 668.37 48.07 667.74 47 667.61 46.79 665 44.52 665 44.52 665 44.52 658.94 51.05 652.44 50.62 652.44 50.62 662.05 47.88 664.01 43.62L659.87 40.43C659.87 40.43 653.81 47.65 646.38 47.43 646.38 47.43 656.38 44.22 658.91 39.78L654.41 37.19C654.41 37.19 648.41 44.12 642.19 43.9 642.19 43.9 653.31 39.03 653.34 36.67 653.34 36.67 649.07 34.54 647.66 34.52 647.66 34.52 643.2 39.39 639.66 38.95 639.66 38.95 646.74 34.9 646.44 34.07 646.44 34.07 640.14 32.78 636.59 33.82 639.800859 32.7020595 643.248308 32.4435008 646.59 33.07 645.448881 31.3089831 643.819029 29.9189175 641.9 29.07 641.9 29.07 645.62 28.16 648.11 33.4 648.11 33.4 652.99 34.61 653.51 35.24 653.51 35.24 651.79 29.73 649.04 27.07 649.04 27.07 653.51 28.58 654.73 35.89L659.31 38.39C659.31 38.39 657.42 30.98 655.14 28.39 655.14 28.39 659.47 30.63 660.41 39.08L664.51 42.17C664.51 42.17 663.37 35.65 661.45 32.27 661.45 32.27 665.01 35.21 665.65 43.1L668.14 45.48C668.14 45.48 667.22 40.74 666.84 39.4 666.46 38.06 666.77 37.97 666.77 37.97 668.359706 40.5641393 669.200727 43.5475137 669.2 46.59 669.2 46.59 674.04 51.78 674.39 51.52zM594.77 53.3C594.77 53.3 556.87 49.08 560 75.97 560 75.97 558.87 80.63 563 82.97 563 82.97 563.17 80.97 567 81.87 568.353534 82.1612366 569.735615 82.2987737 571.12 82.28 572.989987 82.2462286 574.797994 81.6037719 576.27 80.45 576.27 80.45 587.18 76.58 592.27 59.33 592.27 59.33 595.53 55.68 595.46 54.69L588.91 57.11C588.91 57.11 590.91 61.84 588.91 65.6 588.91 65.6 589.12 57.29 587.91 57.42 587.66 57.42 584.5 58.86 584.5 58.86 584.5 58.86 587.86 67.11 584.72 72.86 584.72 72.86 586.3 62.98 583.29 59.42L578.64 61.82C578.64 61.82 582.64 70.37 579.29 77.01 579.29 77.01 580.59 66.63 577.66 62.42L573.41 65.42C573.41 65.42 577.13 73.83 574.32 79.34 574.32 79.34 574.61 67.2 572.48 66.17 572.48 66.17 568.74 69.17 568.13 70.41 568.13 70.41 570.66 76.51 568.75 79.56 568.75 79.56 568.08 71.43 567.2 71.35 567.2 71.35 563.36 76.52 562.8 80.17 563.146877 76.7860268 564.374295 73.551987 566.36 70.79 564.284907 71.0767593 562.338646 71.9630034 560.76 73.34 560.76 73.34 561.5 69.59 567.3 69.55 567.3 69.55 570.45 65.64 571.3 65.43 571.3 65.43 565.57 64.66 562 66.03 562 66.03 565.25 62.61 572.39 64.6L576.6 61.51C576.6 61.51 568.99 59.97 565.77 60.97 565.77 60.97 569.63 57.97 577.69 60.72L582.22 58.31C582.22 58.31 575.83 56.59 571.96 56.9 571.96 56.9 576.13 54.9 583.54 57.67L586.76 56.42C586.76 56.42 582.07 55.25 580.69 55.03 579.31 54.81 579.26 54.43 579.26 54.43 582.283137 54.083136 585.343239 54.5816141 588.1 55.87 588.1 55.87 594.84 53.72 594.77 53.3zM926.37 347.47C926.37 347.47 888.49 343.25 891.62 370.11 891.62 370.11 890.49 374.77 894.62 377.11 894.62 377.11 894.79 375.11 898.62 376 899.971969 376.301104 901.355206 376.438756 902.74 376.41 904.610916 376.381361 906.420512 375.73834 907.89 374.58 907.89 374.58 918.8 370.71 923.84 353.47 923.84 353.47 927.1 349.81 927.03 348.83L920.48 351.24C920.48 351.24 922.48 355.98 920.48 359.74 920.48 359.74 920.69 351.42 919.48 351.56 919.23 351.56 916.07 352.99 916.07 352.99 916.07 352.99 919.43 361.24 916.29 366.99 916.29 366.99 917.87 357.12 914.86 353.55L910.21 355.96C910.21 355.96 914.21 364.51 910.87 371.15 910.87 371.15 912.16 360.77 909.23 356.55L904.98 359.55C904.98 359.55 908.7 367.96 905.89 373.46 905.89 373.46 906.18 361.32 904.05 360.3 904.05 360.3 900.32 363.3 899.7 364.54 899.7 364.54 902.24 370.64 900.32 373.69 900.32 373.69 899.65 365.56 898.77 365.48 898.77 365.48 894.93 370.65 894.37 374.3 894.716877 370.916027 895.944295 367.681987 897.93 364.92 895.853425 365.201638 893.905755 366.088523 892.33 367.47 892.33 367.47 893.07 363.71 898.87 363.67 898.87 363.67 902.03 359.76 902.87 359.56 902.87 359.56 897.14 358.78 893.57 360.15 893.57 360.15 896.82 356.74 903.97 358.73L908.17 355.64C908.17 355.64 900.65 354.22 897.38 355.2 897.38 355.2 901.24 352.2 909.3 354.94L913.83 352.54C913.83 352.54 907.44 350.82 903.57 351.13 903.57 351.13 907.74 349.13 915.15 351.9L918.37 350.64C918.37 350.64 913.68 349.47 912.3 349.26 910.92 349.05 910.87 348.66 910.87 348.66 913.892279 348.306842 916.953204 348.801991 919.71 350.09 919.71 350.09 926.47 347.9 926.37 347.47zM984.28 382.85C984.28 382.85 946.4 378.64 949.53 405.49 949.53 405.49 948.41 410.15 952.53 412.49 952.53 412.49 952.7 410.49 956.53 411.39 957.87963 411.68369 959.259068 411.817942 960.64 411.79 962.50143 411.751907 964.300759 411.113548 965.77 409.97 965.77 409.97 976.67 406.1 981.71 388.85 981.71 388.85 984.98 385.2 984.9 384.21L978.35 386.62C978.35 386.62 980.35 391.36 978.35 395.12 978.35 395.12 978.56 386.81 977.35 386.94 977.1 386.94 973.94 388.37 973.94 388.37 973.94 388.37 977.3 396.62 974.16 402.37 974.16 402.37 975.74 392.5 972.73 388.94L968.08 391.34C968.08 391.34 972.08 399.89 968.74 406.53 968.74 406.53 970.03 396.15 967.1 391.94L962.85 394.94C962.85 394.94 966.57 403.35 963.77 408.86 963.77 408.86 964.05 396.71 961.92 395.69 961.92 395.69 958.19 398.69 957.57 399.93 957.57 399.93 960.11 406.03 958.19 409.08 958.19 409.08 957.52 400.95 956.64 400.87 956.64 400.87 952.8 406.04 952.25 409.69 952.596194 406.307512 953.819919 403.074119 955.8 400.31 953.724907 400.596759 951.778646 401.483003 950.2 402.86 950.2 402.86 950.95 399.1 956.75 399.07 956.75 399.07 959.9 395.16 960.75 394.95 960.75 394.95 955.02 394.18 951.45 395.55 951.45 395.55 954.7 392.13 961.85 394.12L966.05 391.03C966.05 391.03 958.53 389.61 955.26 390.59 955.26 390.59 959.12 387.59 967.18 390.34L971.71 387.93C971.71 387.93 965.32 386.21 961.45 386.52 961.45 386.52 965.62 384.52 973.03 387.29L976.25 386.04C976.25 386.04 971.56 384.87 970.19 384.65 968.82 384.43 968.75 384.05 968.75 384.05 971.773137 383.703136 974.833239 384.201614 977.59 385.49 977.59 385.49 984.38 383.28 984.28 382.85zM855.71 84.84C855.71 84.84 825.19 62.01 814.28 86.74 814.28 86.74 810.95 90.19 813.34 94.32 813.34 94.32 814.48 92.71 817.34 95.38 818.35302 96.322438 819.474174 97.1414846 820.68 97.82 822.313515 98.7287378 824.198875 99.0798289 826.05 98.82 826.05 98.82 837.41 101.01 850.5 88.7 850.5 88.7 855.16 87.2 855.6 86.32L848.73 85.08C848.73 85.08 848.01 90.15 844.46 92.42 844.46 92.42 848.85 85.36 847.71 84.85 847.48 84.74 844.05 84.35 844.05 84.35 844.05 84.35 842.76 93.17 837.16 96.5 837.16 96.5 843.53 88.79 842.74 84.19L837.51 83.91C837.51 83.91 836.62 93.3 830.38 97.34 830.38 97.34 836.76 89.05 836.38 83.93L831.2 84.35C831.2 84.35 830.2 93.48 824.94 96.8 824.94 96.8 831.34 86.48 830.02 84.52 830.02 84.52 825.29 85.19 824.12 85.97 824.12 85.97 823.22 92.51 820.02 94.17 820.02 94.17 823.56 86.82 822.84 86.31 822.84 86.31 816.91 88.82 814.58 91.68 816.595551 88.941628 819.291104 86.776913 822.4 85.4 820.465651 84.5960345 818.33883 84.3736218 816.28 84.76 816.28 84.76 818.83 81.9 823.85 84.81 823.85 84.81 828.54 83.04 829.34 83.26 829.34 83.26 824.79 79.69 821.02 79.07 821.02 79.07 825.56 77.77 830.71 83.07L835.9 82.54C835.9 82.54 830.14 77.54 826.82 76.7 826.82 76.7 831.65 76.09 837.22 82.51L842.35 82.74C842.35 82.74 837.71 78.02 834.22 76.32 834.22 76.32 838.82 76.72 843.81 82.85L847.22 83.4C847.22 83.4 843.77 80.02 842.69 79.14 841.61 78.26 841.77 77.97 841.77 77.97 844.548046 79.2039427 846.929584 81.1839429 848.65 83.69 848.65 83.69 855.58 85.25 855.71 84.84zM879.29 249.66C879.29 249.66 868.77 213.03 845.11 226.18 845.11 226.18 840.37 226.91 839.78 231.65 839.78 231.65 841.66 231.06 842.31 234.89 842.551028 236.26595 842.953822 237.608595 843.51 238.89 844.251736 240.61318 845.537201 242.046157 847.17 242.97 847.17 242.97 854.91 251.57 872.77 249.65 872.77 249.65 877.39 251.27 878.27 250.83L873.54 245.69C873.54 245.69 869.91 249.31 865.71 248.97 865.71 248.97 873.47 245.97 872.87 244.9 872.75 244.68 870.25 242.29 870.25 242.29 870.25 242.29 863.91 248.55 857.43 247.82 857.43 247.82 867.16 245.52 869.3 241.38L865.3 238C865.3 238 858.92 244.94 851.51 244.4 851.51 244.4 861.59 241.63 864.37 237.32L859.99 234.53C859.99 234.53 853.64 241.18 847.48 240.68 847.48 240.68 858.81 236.31 858.95 233.96 858.95 233.96 854.77 231.64 853.36 231.56 853.36 231.56 848.69 236.22 845.14 235.62 845.14 235.62 852.4 231.89 852.14 231.05 852.14 231.05 845.9 229.48 842.31 230.35 845.561472 229.385829 849.008118 229.285876 852.31 230.06 851.252379 228.250559 849.687996 226.790468 847.81 225.86 847.81 225.86 851.57 225.11 853.81 230.46 853.81 230.46 858.62 231.88 859.12 232.54 859.12 232.54 857.65 226.95 855.02 224.18 855.02 224.18 859.42 225.88 860.31 233.24L864.77 235.95C864.77 235.95 863.21 228.45 861.05 225.81 861.05 225.81 865.27 228.24 865.84 236.72L869.84 239.99C869.84 239.99 868.99 233.43 867.23 229.99 867.23 229.99 870.66 233.09 870.94 240.99L873.32 243.49C873.32 243.49 872.62 238.71 872.32 237.35 872.02 235.99 872.32 235.8 872.32 235.8 873.799785 238.459921 874.509632 241.479368 874.37 244.52 874.37 244.52 878.93 249.9 879.29 249.66zM644.87 332.2C644.87 332.2 624.44 300.02 605.47 319.28 605.47 319.28 601.13 321.28 601.89 326.03 601.89 326.03 603.54 324.93 605.24 328.43 605.850854 329.670361 606.609715 330.832157 607.5 331.89 608.692342 333.333828 610.326176 334.345751 612.15 334.77 612.15 334.77 622 340.85 638.6 333.97 638.6 333.97 643.49 334.23 644.21 333.56L638.21 329.96C638.21 329.96 635.74 334.46 631.61 335.31 631.61 335.31 638.23 330.31 637.34 329.39 637.17 329.21 634.09 327.63 634.09 327.63 634.09 327.63 629.76 335.41 623.34 336.54 623.34 336.54 632.03 331.59 632.93 327.01L628.14 324.9C628.14 324.9 623.97 333.35 616.71 334.9 616.71 334.9 625.61 329.41 627.06 324.49L622.06 323.05C622.06 323.05 617.84 331.22 611.79 332.47 611.79 332.47 621.43 325.09 620.9 322.79 620.9 322.79 616.24 321.74 614.9 322.06 614.9 322.06 611.73 327.85 608.15 328.27 608.15 328.27 614.07 322.65 613.58 321.91 613.58 321.91 607.15 322.16 603.95 324.01 606.804458 322.160743 610.093738 321.091899 613.49 320.91 611.969432 319.470836 610.061051 318.507955 608 318.14 608 318.14 611.39 316.37 615 320.87 615 320.87 620 320.87 620.69 321.37 620.69 321.37 617.69 316.37 614.4 314.5 614.4 314.5 619.1 314.9 622.02 321.71L627.07 323.05C627.07 323.05 623.46 316.3 620.65 314.37 620.65 314.37 625.38 315.51 628.31 323.5L633.03 325.5C633.03 325.5 630.37 319.45 627.7 316.62 627.7 316.62 631.86 318.62 634.35 326.13L637.35 327.86C637.35 327.86 635.35 323.47 634.64 322.26 633.93 321.05 634.21 320.77 634.21 320.77 636.373943 322.907476 637.900827 325.604625 638.62 328.56 638.62 328.56 644.6 332.54 644.87 332.2z" opacity=".1"/>
    <path fill="#00BABA" d="M779.14 167.78C779.14 167.78 759.71 134.99 740.14 153.65 740.14 153.65 735.74 155.55 736.36 160.29 736.36 160.29 738.03 159.23 739.63 162.78 740.202149 164.04193 740.924 165.230465 741.78 166.32 742.928341 167.794675 744.531216 168.849198 746.34 169.32 746.34 169.32 755.99 175.7 772.8 169.32 772.8 169.32 777.68 169.73 778.42 169.08L772.55 165.3C772.55 165.3 769.95 169.71 765.79 170.44 765.79 170.44 772.56 165.61 771.71 164.7 771.53 164.51 768.51 162.83 768.51 162.83 768.51 162.83 763.94 170.48 757.51 171.41 757.51 171.41 766.35 166.73 767.38 162.19L762.66 159.97C762.66 159.97 758.23 168.3 750.92 169.63 750.92 169.63 759.99 164.42 761.59 159.55L756.65 157.95C756.65 157.95 752.17 165.95 746.09 167.05 746.09 167.05 755.95 159.97 755.49 157.66 755.49 157.66 750.87 156.46 749.49 156.74 749.49 156.74 746.14 162.43 742.55 162.74 742.55 162.74 748.64 157.32 748.18 156.56 748.18 156.56 741.74 156.61 738.49 158.36 741.401369 156.60392 744.720929 155.638732 748.12 155.56 746.6419 154.073471 744.761419 153.051545 742.71 152.62 742.71 152.62 746.16 150.95 749.71 155.56 749.71 155.56 754.71 155.73 755.38 156.24 755.38 156.24 752.55 151.24 749.31 149.18 749.31 149.18 753.99 149.72 756.7 156.62L761.7 158.12C761.7 158.12 758.31 151.26 755.55 149.24 755.55 149.24 760.25 150.53 762.93 158.6L767.58 160.77C767.58 160.77 765.11 154.64 762.58 151.77 762.58 151.77 766.67 153.9 768.94 161.48L771.87 163.3C771.87 163.3 769.99 158.85 769.33 157.62 768.67 156.39 768.95 156.12 768.95 156.12 771.046179 158.323208 772.489752 161.064957 773.12 164.04 773.12 164.04 778.85 168.11 779.14 167.78zM656.21 236.73C656.21 236.73 657.21 198.63 630.74 204 630.74 204 626 203.27 624 207.61 624 207.61 626 207.61 625.44 211.46 625.256807 212.832805 625.236667 214.222463 625.38 215.6 625.560775 217.468475 626.351448 219.225525 627.63 220.6 627.63 220.6 632.4 231.14 650.01 234.72 650.01 234.72 653.92 237.67 654.9 237.51L651.9 231.19C651.9 231.19 647.35 233.53 643.44 231.94 643.44 231.94 651.74 231.45 651.51 230.23 651.51 229.98 649.79 226.94 649.79 226.94 649.79 226.94 641.85 230.99 635.9 228.33 635.9 228.33 645.9 229.08 649.17 225.79L646.38 221.36C646.38 221.36 638.2 226.04 631.3 223.28 631.3 223.28 641.75 223.7 645.71 220.43L642.38 216.43C642.38 216.43 634.31 220.85 628.59 218.51 628.59 218.51 640.71 217.78 641.59 215.57 641.59 215.57 638.31 212.1 636.99 211.57 636.99 211.57 631.13 214.57 627.93 212.95 627.93 212.95 635.93 211.61 635.98 210.72 635.98 210.72 630.51 207.33 626.82 207.08 630.222597 207.140833 633.549821 208.092454 636.47 209.84 636.014399 207.796002 634.971706 205.929582 633.47 204.47 633.47 204.47 637.28 204.9 637.8 210.67 637.8 210.67 641.97 213.49 642.24 214.27 642.24 214.27 642.53 208.5 640.86 205.06 640.86 205.06 644.54 208.01 643.16 215.29L646.59 219.23C646.59 219.23 647.37 211.61 646.12 208.44 646.12 208.44 649.4 212.03 647.38 220.29L650.15 224.6C650.15 224.6 651.33 218.09 650.7 214.26 650.7 214.26 653.02 218.26 650.9 225.87L652.42 228.97C652.42 228.97 653.19 224.2 653.29 222.81 653.39 221.42 653.77 221.33 653.77 221.33 654.371971 224.313094 654.133083 227.404789 653.08 230.26 653.08 230.26 655.77 236.86 656.21 236.73z"/>
    <ellipse cx="699.97" cy="716.3" fill="#00BABA" opacity=".1" rx="26.93" ry="4.55"/>
    <ellipse cx="601.8" cy="785.38" fill="#00BABA" opacity=".1" rx="26.93" ry="4.55"/>
    <ellipse cx="94.14" cy="749.99" fill="#00BABA" opacity=".1" rx="26.93" ry="4.55"/>
    <ellipse cx="806.06" cy="780.83" fill="#00BABA" opacity=".1" rx="26.93" ry="4.55"/>
    <ellipse cx="834.1" cy="723.1" fill="#00BABA" rx="40.21" ry="6.8"/>
    <path fill="#00BABA" d="M850.77,711.97 C852.60562,710.47844 853.941895,708.461816 854.6,706.19 C855.1,703.89 854.12,701.14 851.93,700.3 C849.47,699.36 846.84,701.06 844.84,702.78 C842.84,704.5 840.57,706.47 837.96,706.11 C840.685285,703.634241 841.914683,699.911895 841.2,696.3 C841.086694,695.56412 840.775618,694.87284 840.3,694.3 C838.93,692.84 836.46,693.47 834.82,694.62 C829.62,698.28 828.17,705.34 828.14,711.7 C827.62,709.41 828.06,707.02 828.05,704.7 C828.04,702.38 827.39,699.7 825.4,698.48 C824.178515,697.798916 822.798291,697.45386 821.4,697.48 C819.06,697.4 816.45,697.63 814.86,699.34 C812.86,701.46 813.39,705.03 815.11,707.34 C816.83,709.65 819.46,711.14 821.88,712.76 C823.816838,713.916624 825.470521,715.491724 826.72,717.37 C826.862387,717.631625 826.979581,717.906194 827.07,718.19 L841.73,718.19 C845.011937,716.53702 848.053262,714.444427 850.77,711.97 Z"/>
    <path fill="#A8A8A8" d="M76.06,728.84 C76.06,728.84 91.41,728.37 96.06,725.07 C100.71,721.77 119.69,717.84 120.84,723.13 C121.99,728.42 143.92,749.42 126.58,749.56 C109.24,749.7 86.29,746.86 81.67,744.04 C77.05,741.22 76.06,728.84 76.06,728.84 Z"/>
    <path fill="#000" d="M126.87,747.72 C109.53,747.86 86.58,745.02 81.96,742.2 C78.44,740.06 77.04,732.37 76.57,728.82 L76.06,728.82 C76.06,728.82 77.06,741.21 81.65,744.02 C86.24,746.83 109.22,749.68 126.56,749.54 C131.56,749.54 133.29,747.72 133.2,745.08 C132.5,746.69 130.59,747.69 126.87,747.72 Z" opacity=".2"/>
  </g>
</svg>
